<svg width="35" height="35" viewBox="0 0 35 35" fill="none" xmlns="http://www.w3.org/2000/svg">
<path d="M20.3218 34.7722C20.176 34.796 20.0297 34.8179 19.8828 34.8379C20.0297 34.8179 20.176 34.796 20.3218 34.7722Z" fill="black"/>
<path d="M20.672 34.7124C20.6023 34.7252 20.5326 34.737 20.4629 34.749C20.5326 34.737 20.6023 34.7252 20.672 34.7124Z" fill="black"/>
<path d="M19.4921 34.8865C19.3215 34.9057 19.1498 34.9228 18.9775 34.9372C19.1498 34.9228 19.3215 34.9057 19.4921 34.8865Z" fill="black"/>
<path d="M19.8278 34.8454C19.7458 34.8563 19.6633 34.8665 19.5811 34.8761C19.6633 34.8665 19.7458 34.8563 19.8278 34.8454Z" fill="black"/>
<path d="M21.1477 34.6179C21.0863 34.631 21.0246 34.6441 20.9629 34.6566C21.0246 34.6441 21.0863 34.631 21.1477 34.6179Z" fill="black"/>
<path d="M22.3306 34.3242C22.281 34.3383 22.2313 34.3517 22.1816 34.3655C22.2313 34.3517 22.281 34.3383 22.3306 34.3242Z" fill="black"/>
<path d="M21.9729 34.4219C21.919 34.436 21.8648 34.4504 21.8105 34.4641C21.8648 34.4504 21.919 34.4363 21.9729 34.4219Z" fill="black"/>
<path d="M21.5055 34.5388C21.4484 34.5522 21.3907 34.5648 21.333 34.5776C21.3907 34.5648 21.4484 34.5522 21.5055 34.5388Z" fill="black"/>
<path d="M18.972 34.9378C18.8798 34.9455 18.7877 34.9525 18.6953 34.9586C18.7877 34.9525 18.8798 34.9455 18.972 34.9378Z" fill="black"/>
<path d="M35 17.5C35 7.83649 27.1635 0 17.5 0C7.83649 0 0 7.83649 0 17.5C0 27.1635 7.83649 35 17.5 35C17.6028 35 17.7051 34.9979 17.8076 34.996V21.373H14.0479V16.9913H17.8076V13.7669C17.8076 10.0275 20.0904 7.99217 23.4262 7.99217C25.0235 7.99217 26.3966 8.11127 26.7969 8.16441V12.0726H24.4967C22.682 12.0726 22.3306 12.9351 22.3306 14.2006V16.9913H26.6698L26.1042 21.373H22.3306V34.3239C29.6453 32.2269 35 25.4879 35 17.5Z" fill="#EDCFA4"/>
<path d="M18.6559 34.961C18.4738 34.9727 18.2909 34.9821 18.1074 34.9882C18.2909 34.9821 18.4738 34.9727 18.6559 34.961Z" fill="black"/>
<path d="M18.0981 34.9888C18.0015 34.992 17.9045 34.9944 17.8076 34.996C17.9045 34.9944 18.0015 34.992 18.0981 34.9888Z" fill="black"/>
</svg>
