<svg width="35" height="35" viewBox="0 0 35 35" fill="none" xmlns="http://www.w3.org/2000/svg">
<path fill-rule="evenodd" clip-rule="evenodd" d="M7.77753 2.94928C10.6554 1.02636 14.0388 2.96859e-08 17.5 2.96859e-08C19.7982 -0.000133829 22.0739 0.452426 24.1971 1.33184C26.3204 2.21124 28.2496 3.50028 29.8747 5.12533C31.4997 6.75038 32.7888 8.67962 33.6682 10.8029C34.5476 12.9261 35.0001 15.2018 35 17.5C35 20.9612 33.9736 24.3446 32.0507 27.2225C30.1278 30.1003 27.3947 32.3433 24.197 33.6679C20.9993 34.9924 17.4806 35.339 14.0859 34.6637C10.6913 33.9885 7.57306 32.3218 5.12564 29.8744C2.67822 27.4269 1.01151 24.3087 0.336265 20.9141C-0.338976 17.5194 0.00758224 14.0007 1.33212 10.803C2.65665 7.60533 4.89967 4.87221 7.77753 2.94928ZM11.2873 30.1318H14.5188C14.7749 30.1318 15.0204 30.0301 15.2015 29.849C15.3826 29.6679 15.4843 29.4224 15.4843 29.1663C15.4843 28.9103 15.3826 28.6647 15.2015 28.4836C15.0204 28.3026 14.7749 28.2009 14.5188 28.2009H11.2873C10.7751 28.2003 10.284 27.9966 9.92179 27.6344C9.5596 27.2722 9.35588 26.7811 9.35534 26.2689V9.27053C9.35588 8.75831 9.5596 8.26723 9.92179 7.90503C10.284 7.54284 10.7751 7.33912 11.2873 7.33858H23.161C23.6732 7.33912 24.1643 7.54284 24.5265 7.90503C24.8887 8.26723 25.0924 8.75831 25.093 9.27053V15.2156C25.1011 15.4663 25.2065 15.7041 25.3867 15.8786C25.567 16.0531 25.8081 16.1506 26.059 16.1506C26.3098 16.1506 26.5509 16.0531 26.7312 15.8786C26.9114 15.7041 27.0168 15.4663 27.0249 15.2156V9.27053C27.0236 8.24627 26.616 7.26436 25.8917 6.54019C25.1673 5.81602 24.1853 5.40872 23.161 5.40764H11.2873C10.2631 5.40872 9.28121 5.81605 8.55701 6.54025C7.83281 7.26445 7.42549 8.24636 7.4244 9.27053V26.2689C7.42549 27.2931 7.83281 28.275 8.55701 28.9992C9.28121 29.7234 10.2631 30.1307 11.2873 30.1318ZM12.2477 13.1334H22.1955C22.4516 13.1334 22.6972 13.0317 22.8782 12.8506C23.0593 12.6696 23.161 12.424 23.161 12.168C23.161 11.9119 23.0593 11.6663 22.8782 11.4853C22.6972 11.3042 22.4516 11.2025 22.1955 11.2025H12.2477C11.9916 11.2025 11.746 11.3042 11.565 11.4853C11.3839 11.6663 11.2822 11.9119 11.2822 12.168C11.2822 12.424 11.3839 12.6696 11.565 12.8506C11.746 13.0317 11.9916 13.1334 12.2477 13.1334ZM23.0878 16.4027C23.1363 16.2854 23.1611 16.1598 23.161 16.0329C23.161 15.7768 23.0593 15.5313 22.8782 15.3502C22.6972 15.1691 22.4516 15.0674 22.1955 15.0674H12.2477C11.9969 15.0756 11.7591 15.1809 11.5846 15.3612C11.4101 15.5415 11.3126 15.7825 11.3126 16.0334C11.3126 16.2843 11.4101 16.5254 11.5846 16.7056C11.7591 16.8859 11.9969 16.9912 12.2477 16.9994H22.1955C22.3224 16.9994 22.448 16.9744 22.5653 16.9258C22.6825 16.8772 22.7889 16.806 22.8786 16.7162C22.9683 16.6265 23.0394 16.5199 23.0878 16.4027ZM11.5846 20.5665C11.7591 20.7467 11.9969 20.8521 12.2477 20.8602H18.2897C18.5405 20.8521 18.7783 20.7467 18.9528 20.5665C19.1273 20.3862 19.2248 20.1451 19.2248 19.8943C19.2248 19.6434 19.1273 19.4023 18.9528 19.222C18.7783 19.0418 18.5405 18.9364 18.2897 18.9283H12.2477C11.9969 18.9364 11.7591 19.0418 11.5846 19.222C11.4101 19.4023 11.3126 19.6434 11.3126 19.8943C11.3126 20.1451 11.4101 20.3862 11.5846 20.5665ZM23.444 28.772L28.7352 23.491C29.0043 23.222 29.2178 22.9026 29.3636 22.5511C29.5093 22.1996 29.5843 21.8228 29.5844 21.4423C29.5845 21.0618 29.5096 20.6849 29.3641 20.3333C29.2186 19.9818 29.0052 19.6623 28.7362 19.3931C28.4672 19.124 28.1478 18.9105 27.7963 18.7648C27.4448 18.6191 27.068 18.544 26.6875 18.5439C26.307 18.5438 25.9301 18.6187 25.5786 18.7642C25.227 18.9097 24.9075 19.1231 24.6383 19.3921L19.3359 24.6833C19.2236 24.7957 19.1405 24.9339 19.0938 25.0858L17.9393 28.8874C17.8892 29.0529 17.8844 29.2288 17.9255 29.3967C17.9665 29.5647 18.0518 29.7185 18.1725 29.8423C18.2933 29.9661 18.445 30.0552 18.6119 30.1003C18.7788 30.1455 18.9547 30.1451 19.1214 30.0991L23.019 29.0192C23.1795 28.9746 23.3259 28.8895 23.444 28.772ZM20.2983 27.7666L22.2589 27.2231L25.8132 23.6739L24.4472 22.3069L20.8714 25.8776L20.2983 27.7666ZM27.1873 22.3089L27.3671 22.122H27.3743C27.5553 21.9407 27.6569 21.695 27.6567 21.4388C27.6565 21.1826 27.5545 20.937 27.3733 20.756C27.192 20.575 26.9463 20.4734 26.6901 20.4736C26.4339 20.4738 26.1883 20.5758 26.0073 20.757L25.8214 20.943L27.1873 22.3089Z" fill="#EDCFA4"/>
</svg>
