<svg width="1354" height="180" viewBox="0 0 1354 180" fill="none" xmlns="http://www.w3.org/2000/svg">
<path d="M1109.01 113.126C1109.29 111.78 1109.58 110.434 1109.93 108.769C1106.42 109.372 1103.55 110.505 1101.43 112.949C1100.22 114.33 1099.19 114.897 1097.49 113.976C1095.54 112.913 1093.63 111.851 1091.57 111.001C1090.72 110.646 1089.55 110.54 1088.63 110.788C1082.61 112.453 1077.72 116.278 1072.44 119.465C1068.5 121.838 1062.69 121.059 1059.11 118.084C1058.4 117.517 1057.24 117.199 1056.31 117.234C1054.08 117.34 1052.88 116.419 1052.73 114.188C1052.59 112.063 1052.77 110.08 1054.29 108.344C1054.86 107.707 1055.22 106.609 1055.18 105.759C1054.83 98.5694 1058.76 93.8235 1064.07 89.8568C1065.99 88.4047 1068.15 87.236 1069.99 85.7485C1070.7 85.1818 1070.95 84.0838 1071.34 83.163C1071.73 82.2422 1072.05 81.2505 1072.47 80.0463C1072.23 79.6567 1071.66 79.0547 1071.37 78.3109C1070.74 76.6109 1072.15 74.5213 1074.1 74.4859C1075.88 74.4505 1077.72 74.6275 1079.42 75.088C1081.47 75.6546 1083.42 76.0797 1085.48 75.2296C1087.36 74.4505 1089.27 73.9901 1090.9 75.6192C1092.57 77.2838 1092.39 79.2318 1091.5 81.4984C1092.96 80.7193 1094.45 79.9755 1095.9 79.1963C1098.02 78.063 1100.19 76.9651 1102.28 75.7963C1103.77 74.9817 1104.4 75.5838 1104.65 77.0005C1104.79 77.8505 1104.83 78.7713 1105.08 79.5859C1105.25 80.0817 1105.79 80.4005 1106.14 80.8255C1106.35 80.6484 1106.53 80.5068 1106.74 80.3297C1106.42 79.6213 1106.07 78.9484 1105.79 78.2401C1105.25 76.8588 1104.97 75.3005 1106.49 74.4859C1107.88 73.7421 1108.62 75.0171 1109.29 76.0442C1109.4 76.2213 1109.54 76.363 1109.61 76.4692C1109.86 76.4692 1110.07 76.5046 1110.11 76.4338C1111.49 74.0963 1113.3 72.3609 1115.92 71.2984C1117.59 70.6254 1118.65 69.0317 1118.83 67.0129C1118.93 65.7733 1119.32 64.7462 1121.02 64.7108C1124.07 64.64 1125.21 63.2942 1125.06 60.2483C1125.03 59.5046 1124.96 58.7608 1124.67 58.0879C1122.69 53.4128 1123.01 48.5253 1123.19 43.6378C1123.19 43.3899 1123.11 43.142 1123.04 42.469C1122.02 42.894 1121.13 43.2128 1120.28 43.6732C1118.15 44.8065 1116.1 46.117 1113.94 47.1441C1111.17 48.4545 1109.12 47.817 1107.7 45.0899C1106.88 43.5315 1106.03 43.2836 1104.55 44.0628C1102.38 45.2316 1100.19 46.4357 1097.88 47.2857C1095.97 47.9941 1093.91 48.4545 1091.89 48.5961C1086.83 48.9857 1081.72 48.9149 1076.69 49.517C1072.54 50.0128 1069.64 53.0587 1066.48 55.5733C1064.29 57.3087 1061.88 58.7254 1059.54 60.2837C1059.26 60.4608 1058.9 60.6733 1058.62 60.6025C1057.84 60.4608 1057.06 60.2129 1056.28 60.0358C1056.49 59.1858 1056.49 58.1587 1057.02 57.5566C1057.94 56.4941 1059.18 55.6795 1060.32 54.7587C1060.25 54.5816 1060.21 54.3691 1060.14 54.192C1059.5 54.192 1058.83 54.0504 1058.23 54.2274C1054.47 55.3962 1050.75 56.6712 1046.96 57.8399C1046.25 58.0524 1045.4 57.7691 1044.58 57.7337C1045.01 57.0608 1045.26 56.1754 1045.86 55.7149C1052.31 50.6503 1059.96 47.8524 1067.41 44.7003C1073.08 42.2919 1078.64 39.6003 1084.42 37.5461C1091.01 35.1731 1097.78 33.4023 1104.47 31.3127C1110.29 29.5065 1116.1 27.7002 1121.91 25.8231C1124.18 25.0793 1126.48 24.3002 1128.68 23.3439C1132.01 21.9272 1135.45 22.0689 1138.96 22.1752C1141.65 22.2814 1144.41 22.1397 1147.11 21.8564C1149.2 21.6439 1149.45 21.7856 1149.06 23.8043C1148.06 29.2585 1149.76 33.2252 1154.87 36.0232C1156.21 36.7669 1158.06 36.5898 1159.69 36.6607C1152.78 35.1023 1151.32 29.719 1151.47 22.9189C1151.5 20.8647 1152.24 18.846 1152.42 16.7918C1152.56 15.3751 1152.14 13.923 1152.28 12.5418C1152.46 11.0188 1152.56 9.17717 1153.49 8.11466C1157.45 3.33338 1162.2 -0.137483 1168.87 0.0041842C1175.78 0.145852 1180.28 4.96255 1179.85 12.0459C1179.57 16.3668 1179.14 20.7231 1178.79 25.0439C1178.61 27.0627 1181.27 29.7898 1183.75 29.8252C1185.66 29.8606 1187.61 29.5064 1189.53 29.4002C1192.43 29.2231 1195.37 28.8689 1198.31 28.9398C1203.84 29.1169 1209.23 28.7273 1214.51 26.8856C1220.57 24.796 1226.74 23.0606 1232.83 21.0772C1236.45 19.8731 1239.88 18.1376 1243.57 17.1814C1248.11 15.9772 1251.68 13.1793 1255.62 10.948C1256.89 10.2397 1258.21 9.56675 1259.59 9.00008C1260.05 8.823 1260.93 8.85841 1261.18 9.17717C1261.47 9.49592 1261.43 10.3459 1261.22 10.8063C1260.79 11.6918 1260.15 12.4709 1259.27 13.7459C1260.9 13.7459 1262.1 13.7459 1263.34 13.7459C1265.93 13.7105 1268.16 14.3834 1269.94 16.5085C1270.43 17.1105 1271.71 17.3585 1272.59 17.3939C1283.4 17.4647 1294.18 17.4293 1304.98 17.4293C1320.01 17.4293 1335.04 17.4293 1350.03 17.4293C1350.98 17.4293 1351.94 17.571 1352.9 17.6418C1352.93 17.8543 1352.97 18.0314 1353 18.2439C1352.61 18.4564 1352.22 18.8105 1351.8 18.8814C1351.02 18.9876 1350.2 18.9876 1349.39 18.9876C1323.59 18.9876 1297.75 18.9522 1271.96 19.0585C1268.98 19.0585 1265.93 19.4835 1263.06 20.2626C1256.93 21.8918 1250.8 23.5918 1244.88 25.8585C1240.42 27.5585 1236.09 29.8252 1232.05 32.3752C1227.13 35.5273 1222.24 38.7503 1216.6 40.344C1213.62 41.194 1210.4 41.2648 1207.35 41.9024C1205.15 42.3628 1202.99 43.1065 1200.9 43.8857C1200.44 44.0628 1200.16 44.9482 1199.91 45.5503C1198.6 48.9503 1196.51 50.1191 1192.86 49.7649C1189.85 49.4816 1186.76 48.4545 1183.75 49.8357C1179.18 51.9253 1176.38 55.467 1175.24 60.3546C1174.43 63.8608 1172.55 66.6942 1169.89 69.1379C1167.84 71.0505 1165.89 73.0692 1164.01 75.1588C1163.48 75.7609 1163.12 76.6817 1163.02 77.4963C1162.42 83.0568 1161.35 88.5818 1158.38 93.3631C1156.6 96.1964 1154.19 98.711 1151.61 100.871C1149.23 102.89 1147.35 102.536 1144.91 100.517C1143.63 99.4548 1142.32 98.3923 1141.22 97.1527C1136.37 91.7339 1130.77 87.413 1123.97 84.7214C1122.37 84.0839 1120.92 83.0213 1119.61 81.9234C1117.27 79.9755 1117.37 77.7088 1119.82 75.9025C1120.56 75.3359 1121.34 74.8046 1122.19 74.4151C1126.91 72.2192 1128.08 68.3588 1127.37 63.6129C1127.26 62.8692 1127.15 62.1608 1127.05 61.3462C1126.3 64.1087 1125.45 66.6233 1121.91 66.6233C1121.48 66.6233 1120.81 67.3671 1120.63 67.8983C1119.71 70.59 1118.15 72.538 1115.39 73.565C1113.19 74.3796 1112.13 76.3276 1111.42 78.3817C1111.24 78.9484 1111.77 80.1526 1112.34 80.4713C1115.81 82.4193 1119.22 84.9339 1123.01 85.8547C1129.25 87.413 1133.46 91.2381 1137.36 95.8423C1139.98 98.9235 1142.85 101.721 1146.96 102.749C1148.35 103.103 1148.56 104.094 1148.38 105.405C1147.82 108.947 1146.22 111.957 1143.95 114.719C1143.35 115.463 1143.1 116.597 1142.85 117.588C1142.15 120.209 1141.72 122.936 1140.76 125.486C1140.37 126.584 1138.99 127.328 1138.07 128.178C1137.43 128.78 1136.79 129.311 1136.16 129.878C1133.64 132.038 1131.16 134.27 1128.57 136.324C1125.21 138.98 1121.7 141.388 1118.37 144.08C1117.76 144.576 1117.52 145.815 1117.52 146.736C1117.52 148.932 1116.38 150.845 1114.29 151.518C1113.79 151.659 1113.05 151.836 1112.77 151.588C1111.24 150.349 1110.36 151.27 1109.15 152.191C1104.12 156.051 1098.66 158.459 1092.07 158.813C1088.63 158.991 1085.27 161.293 1082.04 162.957C1081.3 163.347 1081.12 165.047 1080.94 166.18C1080.91 166.357 1082.22 166.676 1082.89 167.03C1083.81 167.526 1084.88 167.88 1085.62 168.624C1087.36 170.324 1086.93 172.803 1084.63 173.405C1082.29 174.007 1079.77 174.184 1077.36 174.007C1074.99 173.83 1072.65 173.122 1070.35 172.414C1069 171.989 1068.26 172.449 1067.44 173.405C1064.57 176.699 1060.78 177.195 1056.81 176.309C1054.15 175.707 1053.48 172.909 1055.57 171.103C1056.53 170.289 1057.87 169.616 1059.11 169.545C1061.49 169.403 1063.9 169.757 1066.31 169.793C1066.98 169.793 1068.11 169.545 1068.29 169.12C1069.92 165.259 1071.02 161.328 1069.11 157.113C1066.84 152.049 1062.69 149.711 1057.52 149.038C1050.68 148.118 1043.7 152.297 1041.32 158.707C1040.01 162.249 1040.72 165.684 1042.46 168.943C1044.69 173.086 1048.13 175.814 1052.45 177.514C1053.44 177.903 1054.4 178.328 1055.36 178.718C1055.39 178.93 1055.39 179.143 1055.43 179.355C1054.72 179.568 1053.97 179.993 1053.27 179.993C1050.86 180.028 1048.45 179.922 1046.07 179.922C1023.96 179.922 25.5001 179.922 3.38666 179.887C2.5007 179.887 1.57932 179.639 0.693359 179.532C0.693359 179.214 0.693359 178.93 0.693359 178.612C1.61475 178.505 2.50072 178.293 3.42211 178.293C25.7482 178.293 1024.38 178.293 1046.71 178.293C1047.56 178.293 1048.41 178.293 1049.62 178.293C1041.18 172.343 1035.3 165.401 1041.29 155.236C1045.79 147.586 1055.53 145.178 1063.01 148.72C1066.98 150.597 1069.85 153.572 1071.16 157.893C1072.47 162.107 1071.59 166.074 1069.6 170.289C1071.69 170.855 1073.5 171.564 1075.34 171.776C1077.97 172.095 1080.66 172.13 1083.32 172.13C1083.81 172.13 1084.63 171.493 1084.74 171.032C1084.84 170.536 1084.45 169.616 1083.99 169.368C1082.96 168.801 1081.79 168.482 1080.66 168.164C1079.35 167.774 1078.04 167.491 1076.16 166.995C1077.51 165.968 1078.29 165.366 1079.07 164.764C1079.03 164.657 1078.96 164.516 1078.92 164.409C1077.72 164.586 1076.48 164.834 1075.27 164.87C1074.71 164.87 1074.14 164.445 1073.57 164.197C1073.96 163.63 1074.28 162.993 1074.74 162.497C1074.99 162.249 1075.52 162.072 1075.88 162.178C1079.42 163.134 1082.08 160.868 1084.84 159.416C1087.89 157.822 1091.01 156.688 1094.37 156.653C1099.76 156.582 1103.94 153.961 1108.02 150.986C1108.2 150.88 1108.34 150.738 1108.48 150.597C1111.56 148.082 1111.77 146.488 1109.51 143.23C1106.21 138.449 1101.11 138.024 1097.07 142.203C1094.06 145.32 1091.29 148.72 1088.14 151.695C1084.49 155.166 1080.38 158.07 1075.17 158.884C1073.68 159.097 1072.4 159.061 1071.98 157.397C1071.55 155.768 1072.23 154.138 1073.78 153.82C1080.87 152.403 1084.84 146.949 1089.34 142.168C1092.67 138.59 1096.29 135.474 1100.72 133.101C1103.09 131.826 1105.29 132.534 1107.49 131.79C1110.18 130.905 1111.63 129.347 1112.02 126.23C1110.85 126.053 1109.65 126.053 1108.55 125.663C1106.42 124.849 1104.79 123.397 1104.79 120.953C1104.83 118.438 1106.1 116.349 1108.3 115.215C1110.61 114.047 1113.19 113.444 1115.6 112.488C1116.49 112.134 1117.34 111.603 1118.01 110.93C1121.24 107.707 1124.64 104.696 1129.35 104.236C1135.2 103.669 1139.38 106.396 1142.11 111.497C1142.29 111.851 1142.5 112.205 1142.71 112.524C1142.75 112.559 1142.82 112.594 1143.07 112.665C1145.16 110.894 1146.11 108.451 1146.5 105.759C1146.57 105.228 1146.04 104.271 1145.58 104.059C1140.94 102.04 1137.5 98.534 1134.35 94.8152C1131.34 91.2381 1127.9 88.7589 1123.33 87.6256C1120.74 86.9881 1118.3 85.713 1115.6 85.0401C1117.05 85.8193 1118.44 86.7047 1119.93 87.3068C1123.29 88.6172 1125.77 91.061 1128.15 93.5756C1129.85 95.3818 1131.48 97.2589 1133.04 99.136C1133.46 99.6319 1133.6 100.411 1133.85 101.049C1133.25 101.155 1132.61 101.438 1132.01 101.367C1124.25 100.269 1118.65 104.059 1113.69 109.336C1112.38 110.717 1110.99 112.028 1109.65 113.374C1109.47 113.338 1109.22 113.232 1109.01 113.126ZM1182.86 48.1711C1178.93 47.0024 1178.93 47.0024 1177.09 50.1191C1176.95 50.3316 1176.84 50.5795 1176.66 50.792C1174.43 53.9795 1169.96 54.9358 1166.67 52.8816C1164.9 51.7837 1164.61 50.8274 1165.75 49.0566C1167.77 45.9399 1170.99 45.1961 1174.39 44.7711C1175.21 44.6649 1176.02 44.417 1176.84 44.2753C1176.52 43.2836 1176.45 42.0794 1175.85 41.3711C1175.17 40.6273 1173.93 39.919 1172.94 39.9544C1169.82 40.1315 1166.63 40.3086 1163.66 41.0878C1157.06 42.8232 1148.28 39.6357 1145.23 33.6148C1143.46 30.144 1141.47 27.771 1137.4 26.8148C1133.46 25.8939 1129.71 24.7606 1125.91 26.7439C1120.92 29.3648 1115.81 31.5961 1110.32 32.9773C1109.61 33.1544 1108.76 34.0752 1108.62 34.7836C1108.3 36.5898 1108.34 38.4315 1108.2 40.769C1110.32 40.0607 1111.99 39.6003 1113.58 38.9982C1118.69 37.0857 1124 36.1648 1129.46 35.9523C1130.56 35.9169 1131.3 36.2357 1131.12 37.5815C1130.52 41.5836 1129.71 45.5857 1129.42 49.6232C1129.1 54.4045 1129 59.2212 1129.25 64.0025C1129.53 68.9963 1128.43 73.0338 1123.65 75.4067C1122.8 75.8317 1122.02 76.3276 1121.24 76.8588C1119.39 78.1338 1119.22 79.338 1120.88 80.7193C1122.37 81.9234 1124 83.0568 1125.77 83.7297C1131.27 85.8193 1135.87 89.1485 1139.91 93.3631C1141.54 95.0631 1143.24 96.6923 1144.87 98.3569C1146.93 100.482 1150.01 100.942 1152.46 98.4631C1155.9 94.9923 1158.34 91.0256 1159.62 86.3505C1160.36 83.6234 1160.75 80.8255 1161.39 77.6026C1160.61 78.063 1160.25 78.2047 1159.94 78.4172C1155.65 81.4984 1151 83.7651 1145.83 84.9693C1140.83 86.1026 1135.87 86.0672 1130.98 84.4026C1130.42 84.2255 1129.6 83.6589 1129.6 83.2338C1129.56 82.7734 1130.2 82.0297 1130.7 81.7818C1131.83 81.2505 1133.04 80.7547 1134.24 80.5422C1142.43 79.2318 1150.3 77.1776 1157.45 72.7505C1160.47 70.8734 1162.91 69.0317 1163.55 65.1712C1164.01 62.3733 1165.39 59.6816 1167.77 57.8045C1168.4 57.3087 1169.57 56.6712 1169.96 56.9545C1170.57 57.3795 1171.1 58.5129 1170.99 59.2566C1170.74 60.992 1170.39 62.9046 1169.47 64.3213C1168.23 66.2692 1166.35 67.7921 1164.86 69.5984C1164.29 70.2713 1164.08 71.2275 1163.69 72.0775C1163.87 72.1484 1164.08 72.2192 1164.26 72.3255C1165.96 70.6254 1167.63 68.89 1169.4 67.2963C1171.88 65.0296 1173.26 62.2317 1173.9 59.0087C1174.57 55.8212 1176.31 53.2357 1178.75 51.1107C1179.99 50.1191 1181.34 49.2691 1182.86 48.1711ZM1135.16 24.0877C1135.13 24.1939 1135.09 24.3002 1135.06 24.4064C1136.01 24.7252 1137.01 25.1148 1137.96 25.3981C1140.87 26.2127 1143.88 26.3543 1145.26 30.0377C1147.92 37.2273 1155.19 40.9461 1162.73 39.494C1164.65 39.1398 1166.56 38.7503 1168.44 38.2544C1174.07 36.8023 1177.41 38.7503 1178.82 44.3461C1178.93 44.7711 1179.43 45.3732 1179.78 45.4086C1182.54 45.692 1185.38 46.2232 1188.11 45.9399C1190.94 45.6565 1193.67 44.5232 1196.44 43.8149C1198.31 43.319 1199.17 42.1503 1199.27 40.2023C1199.45 37.5461 1199.87 34.8898 1200.05 32.2335C1200.09 31.7377 1199.52 30.746 1199.17 30.7106C1196.72 30.4981 1194.24 30.3565 1191.79 30.4627C1189.28 30.6044 1186.8 31.1356 1184.25 31.3836C1181.2 31.6669 1179.32 29.3648 1177.44 27.6294C1176.73 26.9918 1177.37 24.9377 1177.37 23.521C1177.37 23.4502 1177.26 23.3793 1177.34 23.4502C1175.81 25.4335 1174.36 27.5231 1172.69 29.4356C1170.96 31.3836 1169.22 33.3669 1167.13 34.8898C1165.29 36.2357 1163.09 37.369 1160.86 37.9357C1157.84 38.6794 1154.69 38.5732 1152.14 36.2711C1149.23 33.6856 1147.18 30.6752 1147.32 26.5668C1147.35 25.7877 1147.25 25.0085 1147.21 24.0168C1143.07 24.0877 1139.1 24.0877 1135.16 24.0877ZM1111.46 136.643C1112.7 138.13 1114.26 139.795 1115.53 141.636C1116.49 143.053 1117.13 142.911 1118.33 141.92C1121.09 139.618 1123.82 137.138 1126.91 135.368C1130.24 133.455 1133.11 131.259 1135.41 128.178C1136.09 127.292 1136.83 125.982 1137.72 125.805C1139.52 125.415 1139.88 124.105 1140.27 122.83C1140.69 121.413 1140.83 119.89 1141.19 118.013C1140.44 118.544 1139.95 118.828 1139.49 119.182C1138.28 120.067 1136.97 120.209 1135.77 119.324C1131.73 116.419 1127.19 114.826 1122.26 114.224C1118.4 113.763 1117.27 114.188 1115.78 117.801C1115.35 118.792 1114.96 119.784 1114.72 120.811C1114.57 121.449 1114.68 122.157 1114.68 123.255C1115.67 122.547 1116.31 122.051 1116.98 121.697C1117.34 121.484 1117.87 121.378 1118.26 121.52C1118.51 121.59 1118.79 122.192 1118.72 122.511C1118.12 125.238 1117.87 128.178 1116.67 130.622C1115.53 132.817 1113.37 134.482 1111.46 136.643ZM1058.94 58.442C1061.95 57.9108 1063.97 55.892 1066.09 53.9795C1069 51.3941 1071.98 48.7024 1075.98 48.2066C1080.2 47.6753 1084.49 47.7461 1088.74 47.4274C1091.04 47.2503 1093.49 47.1795 1095.61 46.4003C1099.12 45.1253 1102.42 43.319 1105.79 41.6899C1106.07 41.5482 1106.32 41.0523 1106.35 40.7336C1106.64 38.0065 1106.85 35.2794 1107.1 32.5877C1099.12 33.119 1054.79 50.4732 1051.74 54.5108C1052.66 54.2983 1053.34 54.1212 1054.05 53.9441C1055.78 53.5191 1057.52 52.917 1059.29 52.7045C1060.03 52.5982 1061.35 53.0941 1061.56 53.6253C1061.84 54.3337 1061.52 55.5379 1061.1 56.2816C1060.64 57.1316 1059.68 57.7337 1058.94 58.442ZM1130.77 99.3131C1127.44 95.4881 1124.82 91.7693 1120.7 89.5026C1116.81 87.3422 1113.01 84.8984 1109.15 82.7026C1108.51 82.3484 1107.56 82.5255 1106.78 82.4547C1106.81 83.163 1106.6 84.013 1106.92 84.5797C1109.19 89.1839 1113.19 91.7339 1117.8 93.5402C1118.51 93.8235 1119.11 94.3902 1119.75 94.8152C1118.93 95.2402 1118.19 95.9485 1117.3 96.0902C1115.99 96.3381 1114.61 96.0548 1113.3 96.2318C1111.14 96.5152 1108.94 96.7985 1106.85 97.4714C1100.54 99.4902 1097.24 105.369 1091.43 109.194C1094.09 110.399 1096.15 111.426 1098.27 112.276C1098.73 112.453 1099.65 112.169 1100.04 111.78C1102.14 109.655 1104.65 108.415 1107.42 107.494C1109.26 106.892 1110.96 106.255 1112.13 108.663C1117.16 103.28 1122.76 99.4194 1130.77 99.3131ZM1088.17 108.876C1087.53 108.274 1087.11 107.813 1086.61 107.388C1084.7 105.688 1082.72 104.13 1080.91 102.324C1078.18 99.6673 1077.97 99.561 1074.78 101.615C1074.28 101.934 1073.93 102.465 1073.47 102.819C1071.55 104.236 1069.64 105.688 1067.62 106.963C1066.09 107.919 1065.03 106.999 1064.46 105.582C1064.18 104.909 1064.29 104.13 1064.11 103.421C1064 102.961 1063.58 102.217 1063.4 102.217C1061.38 102.501 1059.33 102.855 1057.34 103.351C1057.09 103.421 1056.85 104.271 1056.88 104.767C1057.02 107.105 1056.28 108.947 1054.75 110.788C1054.05 111.638 1054.19 113.586 1054.61 114.826C1055.14 116.313 1056.42 115.392 1057.52 115.109C1058.05 114.967 1059.04 115.357 1059.43 115.817C1062.59 119.465 1068.79 120.245 1072.76 117.447C1077.08 114.401 1081.47 111.461 1086.54 109.761C1087.04 109.619 1087.46 109.265 1088.17 108.876ZM1258.06 11.9397C1257.96 11.8334 1257.85 11.6918 1257.74 11.5855C1257.18 11.9043 1256.58 12.1522 1256.04 12.5418C1250.13 16.898 1243.25 19.1647 1236.41 21.4668C1231.41 23.1668 1226.35 24.5835 1221.31 26.1773C1216.35 27.7356 1211.6 29.7544 1206.32 30.4981C1202.53 31.0294 1202.04 30.4627 1203.13 34.9252C1204.3 39.7419 1205.47 40.2732 1209.87 38.0419C1218.66 33.544 1226.95 27.9481 1236.45 24.9377C1243.07 22.8481 1249.77 21.0418 1256.5 19.3064C1260.23 18.3501 1264.05 17.7835 1267.81 17.0751C1267.88 16.898 1267.92 16.7209 1267.99 16.5793C1266.75 16.1897 1265.51 15.5522 1264.19 15.446C1262.35 15.2335 1260.44 15.4814 1258.56 15.3751C1256.72 15.3043 1256.33 14.4897 1257.32 12.8959C1257.6 12.5772 1257.85 12.2584 1258.06 11.9397ZM1175.71 19.6251C1175.46 19.4481 1175.21 19.3064 1174.96 19.1293C1174.57 19.3418 1174.15 19.5189 1173.79 19.7668C1171.95 21.0418 1170.89 20.6522 1170.39 18.4918C1169.82 16.0126 1169.29 15.5876 1166.88 16.2959C1163.09 17.3585 1159.4 17.6064 1155.72 15.8709C1155.4 15.7293 1154.37 16.2251 1154.34 16.5085C1153.98 20.2272 1153.49 23.946 1153.52 27.6648C1153.59 30.994 1155.75 33.6148 1158.02 34.1461C1161.74 35.0315 1168.51 31.9856 1170.18 28.4085C1171.1 26.4606 1172.62 24.796 1173.79 22.9543C1174.5 21.9272 1175.07 20.7585 1175.71 19.6251ZM1080.55 99.4902C1081.09 100.128 1081.44 100.694 1081.9 101.119C1084.17 103.103 1086.54 104.944 1088.78 106.963C1089.87 107.955 1090.8 107.849 1091.79 106.999C1093.98 105.051 1096.25 103.174 1098.34 101.084C1102.38 97.0819 1107.1 94.7798 1112.8 94.6027C1113.37 94.6027 1113.94 94.5318 1114.5 94.4964C1114.15 93.8589 1113.58 93.6464 1113.19 93.2568C1110.92 91.2381 1108.37 89.3964 1106.53 87.0235C1103.73 83.3755 1103.77 83.1984 1100.29 86.3505C1099.83 86.7401 1099.48 87.236 1099.12 87.6964C1094.69 93.4339 1089.31 97.7548 1081.9 98.9235C1081.51 99.0298 1081.16 99.2423 1080.55 99.4902ZM1177.55 17.2522C1178.04 14.7022 1177.65 11.9043 1176.63 9.10633C1175.85 6.9459 1174.39 5.35213 1172.23 4.78546C1165.57 3.05004 1158.69 7.3709 1155.97 12.1168C1155.33 13.2147 1155.65 14.0647 1156.78 14.5605C1159.01 15.5168 1161.25 16.1897 1163.76 15.3397C1165.5 14.7376 1167.38 14.4189 1169.22 14.2064C1170.89 13.9939 1171.91 14.7376 1171.91 16.6147C1171.91 17.2168 1172.13 17.8189 1172.16 18.173C1174.04 17.8189 1175.6 17.571 1177.55 17.2522ZM1102.42 77.8505C1101.53 78.2047 1100.54 78.4526 1099.73 78.9484C1092.92 83.1984 1086.15 87.5193 1079.35 91.7693C1077.47 92.9381 1077.65 94.2131 1078.32 96.0194C1079.07 98.0027 1080.38 97.5777 1081.72 97.2589C1083.21 96.9048 1084.7 96.5506 1086.15 96.0548C1091.57 94.1423 1095.19 89.9985 1098.63 85.6422C1099.3 84.7922 1100.12 83.8714 1101.07 83.3755C1103.91 81.9943 1104.33 80.7192 1102.42 77.8505ZM1119.57 112.205C1125.84 112.63 1131.34 114.436 1136.47 117.553C1137.08 117.942 1138.42 117.694 1139.1 117.269C1140.23 116.561 1141.68 115.64 1141.08 113.94C1140.55 112.453 1139.95 110.859 1138.96 109.726C1133.11 103.244 1125.06 105.369 1119.57 112.205ZM1058.05 98.9235C1062.76 99.0652 1066.66 99.1715 1069.92 95.9485C1072.33 93.5756 1075.27 91.7339 1077.86 89.5735C1078.75 88.8651 1079.7 87.3776 1078.43 86.7401C1076.83 85.9255 1074.32 85.1818 1073.04 85.8901C1069.07 88.1568 1065.42 91.0256 1061.84 93.9298C1060.42 95.1339 1059.5 96.9756 1058.05 98.9235ZM1073.36 156.37C1073.47 156.582 1073.57 156.83 1073.68 157.043C1075.8 157.786 1077.68 156.688 1079.45 155.838C1084.63 153.359 1088.6 149.357 1092.28 145.107C1093.56 143.655 1094.73 142.061 1096.15 140.786C1101.39 136.005 1107.27 136.784 1111.1 142.805C1111.85 143.974 1112.41 145.213 1113.05 146.453C1115.42 144.753 1115.57 144.363 1113.94 142.309C1112.7 140.751 1111.31 139.263 1109.9 137.847C1109.44 137.386 1108.59 136.997 1108.02 137.068C1106.14 137.315 1104.65 136.678 1103.2 135.58C1102.63 135.155 1101.5 134.836 1100.9 135.12C1099.3 135.793 1097.63 136.572 1096.43 137.74C1092.99 140.999 1089.77 144.505 1086.44 147.87C1083.21 151.093 1079.95 154.28 1075.13 155.095C1074.49 155.166 1073.96 155.909 1073.36 156.37ZM1126.52 57.9462C1127.37 51.5712 1128.18 45.7628 1128.96 39.9544C1129.17 38.5377 1128.64 37.6877 1127.12 37.9711C1122.94 38.7148 1118.72 39.4232 1114.61 40.3794C1112.52 40.8753 1110.57 41.9024 1108.59 42.6815C1109.86 46.1878 1110.99 46.8607 1113.94 45.5149C1116.77 44.2044 1119.43 42.5044 1122.19 41.0169C1124.14 39.9898 1125.06 40.4857 1125.17 42.6815C1125.24 44.2753 1125.28 45.9045 1125.1 47.4982C1124.67 50.9337 1125.1 54.2274 1126.52 57.9462ZM1132.79 82.8797C1137.04 84.6505 1141.22 84.3318 1145.48 83.4109C1151.08 82.2068 1156 79.5859 1160.47 76.1505C1161.49 75.3359 1162.2 74.1317 1161.25 72.3255C1152.71 78.488 1142.92 81.1443 1132.79 82.8797ZM1090.94 78.2047C1090.09 77.6026 1089.38 76.7171 1088.56 76.6109C1087.5 76.4338 1086.37 77.0005 1085.23 77.0359C1083.49 77.1067 1081.72 77.1776 1080.02 77.0005C1078.39 76.8588 1076.8 76.2567 1075.13 76.1505C1074.46 76.1151 1073.75 76.8942 1073.04 77.3192C1073.39 77.8859 1073.61 78.6651 1074.1 79.0193C1074.99 79.6568 1076.05 80.0817 1077.05 80.5776C1078.29 81.2151 1079.67 81.6401 1080.77 82.4547C1084.03 84.7568 1083.99 84.8276 1087.32 82.4901C1088.24 81.8526 1089.06 81.0026 1089.8 80.188C1090.19 79.7984 1090.41 79.2317 1090.94 78.2047ZM1210.08 40.0253C1214.72 39.8482 1223.41 36.3065 1228.01 33.0836C1231.7 30.5335 1235.6 28.196 1239.32 25.8231C1228.79 28.7627 1219.72 34.9252 1210.08 40.0253ZM1065.78 101.013C1065.88 101.615 1065.99 102.217 1066.13 102.784C1066.34 103.599 1066.56 104.378 1066.77 105.192C1067.65 104.838 1068.58 104.555 1069.46 104.13C1069.85 103.953 1070.13 103.492 1070.52 103.209C1072.01 102.005 1073.43 100.624 1075.06 99.5965C1077.51 98.1089 1077.51 98.2152 1076.51 95.5235C1075.95 94.0714 1075.34 93.7881 1074.03 94.8152C1071.34 96.9402 1068.61 98.9235 1065.78 101.013ZM1115.21 114.613C1112.31 114.932 1110 115.888 1107.95 117.588C1106.49 118.757 1106.21 120.563 1106.92 121.944C1107.52 123.078 1108.97 123.928 1110.25 124.459C1111.42 124.955 1112.48 124.495 1112.41 122.83C1112.38 122.263 1112.66 121.661 1112.84 121.094C1113.62 119.04 1114.36 117.022 1115.21 114.613ZM1176.34 47.1795C1173.3 46.0815 1169.33 47.3566 1167.52 49.6587C1166.7 50.6857 1166.81 51.217 1167.98 51.7837C1171.52 53.4837 1175.39 51.4295 1176.34 47.1795ZM1066.63 171.528C1064.43 171.316 1062.48 170.961 1060.53 170.997C1059.33 171.032 1058.09 171.493 1056.99 172.024C1056.56 172.236 1056.24 173.122 1056.24 173.689C1056.24 174.007 1056.88 174.503 1057.34 174.645C1059.93 175.637 1064.61 174.184 1066.63 171.528ZM1116.45 124.601C1114.26 125.309 1114.22 125.309 1113.83 127.186C1113.23 129.913 1111.67 131.861 1109.15 133.065C1108.8 133.242 1108.44 133.526 1108.12 133.738C1108.2 133.986 1108.23 134.234 1108.3 134.517C1109.29 134.411 1110.46 134.553 1111.24 134.092C1114.86 132.003 1116.24 128.638 1116.45 124.601ZM1154.09 11.5147C1159.4 3.68754 1166.77 0.995865 1175.07 4.04172C1173.51 1.95212 1167.41 0.747943 1163.73 2.37712C1159.51 4.25421 1155.58 6.73339 1154.09 11.5147ZM1083.42 86.9172C1082.64 86.2443 1081.97 85.536 1081.16 84.9693C1079.84 84.0484 1078.53 83.1276 1077.15 82.3839C1076.73 82.1714 1075.98 82.5609 1075.38 82.7026C1075.77 83.1276 1076.09 83.9068 1076.51 83.9776C1079.06 84.3672 1080.66 85.6068 1080.87 88.5464C1081.97 87.8735 1082.72 87.3776 1083.42 86.9172ZM1169.47 58.7962C1166.81 60.9212 1165.36 63.6129 1164.9 67.3671C1167.24 64.8525 1169.68 62.7629 1169.47 58.7962ZM1190.94 47.392C1194.35 49.2691 1197.54 48.0295 1198 45.0899C1195.66 45.8336 1193.46 46.5774 1190.94 47.392ZM1204.09 40.769C1203.13 39.3524 1202.35 38.1836 1201.58 37.0148C1201.43 37.0502 1201.29 37.0857 1201.15 37.0857C1201.15 38.5378 1201.15 40.0253 1201.15 41.7253C1202.21 41.4065 1203.03 41.1232 1204.09 40.769ZM1112.98 149.109C1113.23 149.357 1113.44 149.605 1113.69 149.818C1114.75 149.357 1115.78 148.861 1115.89 147.551C1115.71 147.374 1115.53 147.232 1115.35 147.055C1114.57 147.763 1113.76 148.436 1112.98 149.109Z" fill="#BC9969"/>
</svg>
