<svg width="35" height="35" viewBox="0 0 35 35" fill="none" xmlns="http://www.w3.org/2000/svg">
<path d="M17.4997 0C7.835 0 0 7.83523 0 17.4999C0 27.1644 7.835 35.0002 17.4997 35.0002C27.1644 35.0002 35 27.1644 35 17.4999C35 7.83523 27.1644 0 17.4997 0ZM17.5001 6.1468L27.8559 12.6044H7.1442L17.5001 6.1468ZM27.9849 22.9164H27.9839C27.9839 23.9522 27.1445 24.7915 26.1088 24.7915H8.89131C7.85553 24.7915 7.01622 23.9521 7.01622 22.9164V13.0153C7.01622 12.9058 7.02742 12.7992 7.04562 12.6946L16.94 18.8644C16.9522 18.872 16.9651 18.8771 16.9776 18.8841C16.9907 18.8913 17.004 18.8983 17.0173 18.905C17.0872 18.941 17.1592 18.9701 17.2328 18.9891C17.2404 18.9912 17.2479 18.9921 17.2555 18.9939C17.3363 19.0129 17.418 19.0248 17.4997 19.0248H17.5003C17.5009 19.0248 17.5015 19.0248 17.5015 19.0248C17.5831 19.0248 17.6649 19.0132 17.7456 18.9939C17.7532 18.992 17.7608 18.9912 17.7684 18.9891C17.8419 18.9701 17.9136 18.941 17.9839 18.905C17.9972 18.8983 18.0105 18.8913 18.0235 18.8841C18.0359 18.8771 18.049 18.872 18.0611 18.8644L27.9555 12.6946C27.9737 12.7992 27.9849 12.9055 27.9849 13.0153V22.9164Z" fill="#EDCFA4"/>
</svg>
