<svg width="35" height="35" viewBox="0 0 35 35" fill="none" xmlns="http://www.w3.org/2000/svg">
<path d="M29.8725 5.1234C23.0373 -1.70974 11.9569 -1.70809 5.12377 5.12716C-1.70937 11.9624 -1.70773 23.0428 5.12753 29.8759C11.9628 36.7091 23.0431 36.7074 29.8763 29.8722C33.1579 26.5895 35.001 22.1376 35 17.4959C34.9991 12.855 33.1547 8.40451 29.8725 5.1234ZM26.5032 24.377C26.5024 24.3777 26.5017 24.3785 26.5008 24.3793V24.3735L25.6141 25.2543C24.4674 26.4155 22.7973 26.8933 21.21 26.5143C19.6107 26.0862 18.0904 25.4048 16.7066 24.496C15.4211 23.6744 14.2297 22.7139 13.1541 21.6318C12.1645 20.6494 11.2754 19.5707 10.5 18.4118C9.65175 17.1648 8.9804 15.8063 8.50496 14.3751C7.95993 12.6937 8.41158 10.8488 9.67165 9.60928L10.71 8.57097C10.9986 8.28099 11.4677 8.27996 11.7576 8.56864C11.7584 8.5694 11.7592 8.57015 11.76 8.57097L15.0383 11.8493C15.3282 12.138 15.3293 12.607 15.0406 12.897C15.0398 12.8977 15.0391 12.8985 15.0383 12.8993L13.1133 14.8243C12.5609 15.3706 12.4915 16.2388 12.95 16.866C13.6462 17.8215 14.4167 18.7206 15.2541 19.5552C16.1879 20.4929 17.2029 21.346 18.2875 22.1043C18.9141 22.5414 19.7637 22.4677 20.3058 21.9293L22.1666 20.0393C22.4553 19.7494 22.9243 19.7483 23.2143 20.037C23.215 20.0378 23.2158 20.0385 23.2166 20.0393L26.5008 23.3293C26.7908 23.618 26.7918 24.087 26.5032 24.377Z" fill="#CCCCCC"/>
</svg>
