<svg width="129" height="129" viewBox="0 0 129 129" fill="none" xmlns="http://www.w3.org/2000/svg">
<path d="M64.4522 77.8402L62.48 85.1945L64.4373 85.7193L66.3965 85.2019L64.4522 77.8402ZM119.679 55.3785L62.5078 70.4785L66.3965 85.2019L123.567 70.1019L119.679 55.3785ZM66.4243 70.4859L10.1147 55.3859L6.17048 70.0945L62.48 85.1945L66.4243 70.4859Z" fill="#EDCFA4"/>
<path d="M64.4522 77.8402L63.7619 80.4142L64.447 80.5979L65.1327 80.4168L64.4522 77.8402ZM120.942 60.1636L63.7716 75.2636L65.1327 80.4168L122.304 65.3168L120.942 60.1636ZM65.1424 75.2662L8.83285 60.1662L7.45236 65.3142L63.7619 80.4142L65.1424 75.2662Z" fill="black"/>
</svg>
