<svg width="135" height="135" viewBox="0 0 135 135" fill="none" xmlns="http://www.w3.org/2000/svg">
<circle cx="65.5717" cy="65.5715" r="61.7143" fill="white"/>
<path d="M35.46 72.4818H40.8116V101.447H45.8746V72.4818H51.3257V67.7378H35.46V72.4818Z" fill="#EDCFA4"/>
<path d="M78.2702 76.0228C76.5963 76.0228 75.0344 76.937 73.5663 78.7463V67.7363H69.0156V101.447H73.5663V99.0135C75.0896 100.893 76.6502 101.794 78.2702 101.794C80.0808 101.794 81.2989 100.841 81.9066 98.9707C82.2118 97.9059 82.3679 96.2334 82.3679 93.9091V83.9073C82.3679 81.5291 82.2118 79.8691 81.9066 78.8595C81.3003 76.9757 80.0794 76.0228 78.2702 76.0228ZM77.8145 94.2654C77.8145 96.5359 77.1488 97.6545 75.834 97.6545C75.0868 97.6545 74.3259 97.2969 73.5649 96.5345V81.2267C74.3259 80.474 75.0868 80.1177 75.834 80.1177C77.1474 80.1177 77.8145 81.2805 77.8145 83.5455V94.2654Z" fill="#EDCFA4"/>
<path d="M60.5227 95.5248C59.5132 96.9514 58.5589 97.6544 57.6446 97.6544C57.0369 97.6544 56.6903 97.2967 56.5798 96.5896C56.5383 96.4432 56.5383 95.888 56.5383 94.8218V76.3292H51.9863V96.1877C51.9863 97.9624 52.1396 99.1611 52.3882 99.9235C52.8454 101.197 53.8563 101.793 55.3202 101.793C56.9955 101.793 58.7135 100.783 60.5227 98.7081V101.448H65.0775V76.3292H60.5227V95.5248Z" fill="#EDCFA4"/>
<path d="M64.4322 53.1247C65.9141 53.1247 66.6254 51.9494 66.6254 49.6016V38.9245C66.6254 36.5753 65.9141 35.4055 64.4322 35.4055C62.949 35.4055 62.2363 36.5767 62.2363 38.9245V49.6016C62.2363 51.9508 62.949 53.1247 64.4322 53.1247Z" fill="#EDCFA4"/>
<path d="M67.5 0C30.2207 0 0 30.2207 0 67.5C0 104.779 30.2207 135 67.5 135C104.779 135 135 104.779 135 67.5C135 30.2207 104.779 0 67.5 0ZM75.0075 31.5714H79.5941V50.26C79.5941 51.3387 79.5941 51.898 79.6493 52.0485C79.7501 52.7612 80.112 53.1258 80.7279 53.1258C81.6477 53.1258 82.6131 52.4131 83.6337 50.9727V31.5714H88.2327V56.9541H83.6337V54.1864C81.8024 56.2857 80.0567 57.3035 78.3787 57.3035C76.8982 57.3035 75.8762 56.7028 75.4149 55.4184C75.1608 54.6491 75.0075 53.4351 75.0075 51.6439V31.5714ZM57.6364 39.8481C57.6364 37.1343 58.0976 35.1511 59.0755 33.8681C60.3474 32.1321 62.1387 31.2648 64.4313 31.2648C66.7349 31.2648 68.5248 32.1321 69.7967 33.8681C70.7607 35.1497 71.222 37.1343 71.222 39.8481V48.7367C71.222 51.4353 70.7607 53.4365 69.7967 54.7057C68.5248 56.4376 66.7349 57.3035 64.4313 57.3035C62.1387 57.3035 60.3474 56.4376 59.0755 54.7057C58.0976 53.4365 57.6364 51.434 57.6364 48.7367V39.8481ZM45.3365 22.8927L48.9577 36.2684L52.4366 22.8927H57.5949L51.4588 43.16V56.9555H46.3599V43.16C45.8972 40.7154 44.8766 37.1343 43.2401 32.3834C42.1656 29.2221 41.0455 26.0512 39.9711 22.8927H45.3365ZM103.837 103.665C102.915 107.669 99.6404 110.624 95.6974 111.065C86.3572 112.107 76.9093 112.113 67.4959 112.107C58.0866 112.113 48.6331 112.107 39.2957 111.065C35.3527 110.624 32.0768 107.67 31.157 103.665C29.8436 97.9623 29.8436 91.7351 29.8436 85.8628C29.8436 79.9904 29.8602 73.7645 31.1722 68.0607C32.0934 64.0556 35.3665 61.1001 39.3095 60.6609C48.6483 59.6182 58.1004 59.6127 67.5124 59.6182C76.9217 59.6127 86.3738 59.6182 95.7126 60.6609C99.6556 61.1015 102.931 64.0556 103.855 68.0607C105.165 73.7645 105.156 79.9904 105.156 85.8628C105.156 91.7351 105.151 97.9623 103.837 103.665Z" fill="#EDCFA4"/>
<path d="M92.7672 76.0227C90.4387 76.0227 88.6309 76.8776 87.3161 78.597C86.3507 79.8676 85.9102 81.8315 85.9102 84.5149V93.3137C85.9102 95.9834 86.4032 97.9611 87.3727 99.2192C88.6861 100.935 90.4995 101.792 92.8804 101.792C95.2573 101.792 97.1231 100.893 98.3826 99.0687C98.9351 98.2621 99.2941 97.3492 99.4461 96.3411C99.4889 95.8853 99.5427 94.8757 99.5427 93.4077V92.7461H94.9009C94.9009 94.5691 94.8416 95.5815 94.8015 95.8287C94.5419 97.0454 93.8872 97.6531 92.7672 97.6531C91.2038 97.6531 90.4387 96.493 90.4387 94.17V89.7147H99.5427V84.5122C99.5427 81.8287 99.0884 79.8649 98.1341 78.5943C96.8621 76.879 95.0515 76.0227 92.7672 76.0227ZM94.9935 85.9278H90.4415V83.6034C90.4415 81.2804 91.2052 80.119 92.7258 80.119C94.2311 80.119 94.9935 81.2818 94.9935 83.6034V85.9278Z" fill="#EDCFA4"/>
</svg>
