<svg width="22" height="14" viewBox="0 0 22 14" fill="none" xmlns="http://www.w3.org/2000/svg">
<path d="M8.06759 7.70153C8.25543 4.85018 9.11758 2.39379 10.5673 0C11.4247 1.20893 11.9834 2.41305 12.3494 3.67978C12.7106 4.92725 12.9418 6.21325 13.226 7.46553C13.6402 6.75269 14.0641 5.96761 14.5505 5.22105C15.0226 4.48895 15.456 3.69905 16.3375 3.19814C16.9443 4.72014 16.9299 6.26623 16.901 7.99052C18.3026 7.04168 19.7379 6.72379 21.4381 6.85384C21.1154 7.24397 20.8842 7.53296 20.6386 7.8075C19.5886 8.98753 18.5338 10.1579 17.4886 11.338C16.9154 11.9882 16.3375 12.6432 16.4242 13.6836C12.5276 13.0719 8.70818 13.0382 4.87427 13.6643C4.4745 11.4006 2.61051 10.2206 1.36304 8.60703C0.929558 8.05314 0.428666 7.55222 0 6.94053C1.522 6.80567 2.94284 7.05613 4.28182 7.97608C4.46003 6.36256 4.24331 4.77312 4.87427 3.13552C6.38182 4.40225 7.05131 6.07838 8.06759 7.70153ZM10.6492 5.24995C10.5047 5.51486 10.4325 5.60637 10.4036 5.71234C9.93637 7.41255 9.43064 9.10313 9.02124 10.813C8.8045 11.7281 9.28614 12.2194 10.2205 12.2194C10.5481 12.2194 10.8756 12.2242 11.1983 12.2146C11.3283 12.2098 11.5451 12.2098 11.574 12.1423C11.7955 11.6462 12.3205 11.285 12.1375 10.6059C11.7955 9.34877 11.5354 8.06759 11.2127 6.80086C11.0971 6.32884 10.8804 5.87609 10.6492 5.24995ZM15.7836 6.04949C15.7065 6.03985 15.6246 6.03022 15.5476 6.02059C15.4609 6.09284 15.3597 6.15063 15.2923 6.23733C14.1508 7.71117 13.3127 9.35359 12.7877 11.1357C12.571 11.8678 13.0623 12.4217 13.8185 12.4217C14.0882 12.4217 14.3579 12.4265 14.6228 12.4072C14.748 12.3976 14.9407 12.3639 14.9792 12.282C15.2104 11.7715 15.4801 11.2561 15.5957 10.7166C15.745 10.0279 15.8028 9.31024 15.8269 8.60222C15.8558 7.7497 15.8028 6.89719 15.7836 6.04949ZM5.73158 6.34329C5.66897 6.51669 5.59192 6.62264 5.59674 6.72379C5.67862 8.17836 5.72677 9.63776 5.88571 11.0827C5.92906 11.468 6.24212 11.9738 6.56964 12.1327C6.93088 12.3109 7.56667 12.3109 7.87974 12.0942C8.16873 11.8967 8.35656 11.3813 8.17354 10.8515C7.66299 9.36322 6.9646 7.9857 6.06392 6.69971C5.98204 6.58893 5.87126 6.49742 5.73158 6.34329ZM16.2267 12.0412C16.8817 10.9286 17.5223 9.84005 18.2111 8.66483C17.0214 8.91047 15.6487 11.3043 16.2267 12.0412ZM5.04765 12.0942C5.48595 10.9816 4.13733 8.66483 3.04881 8.73708C3.71829 9.85932 4.36853 10.9575 5.04765 12.0942Z" fill="#D3A153"/>
</svg>
