<svg width="25" height="26" viewBox="0 0 25 26" fill="none" xmlns="http://www.w3.org/2000/svg">
<path fill-rule="evenodd" clip-rule="evenodd" d="M24.9365 7.35151C24.8779 6.0229 24.6631 5.1095 24.3553 4.31802C24.0378 3.47789 23.5493 2.72571 22.9093 2.10043C22.284 1.46542 21.5269 0.971984 20.6965 0.659438C19.9005 0.351662 18.9918 0.13681 17.6632 0.0782319C16.3247 0.0146923 15.8998 0 12.5049 0C9.11 0 8.68507 0.0146923 7.3515 0.0732709C6.0229 0.131849 5.10949 0.346892 4.31821 0.654477C3.47788 0.971984 2.72571 1.46046 2.10043 2.10043C1.46542 2.72571 0.972174 3.48285 0.659437 4.31325C0.351662 5.1095 0.13681 6.01794 0.0782318 7.34655C0.0146923 8.68508 0 9.11001 0 12.5049C0 15.8998 0.0146923 16.3247 0.0732708 17.6583C0.131849 18.9869 0.346891 19.9003 0.654667 20.6918C0.972173 21.5319 1.46542 22.2841 2.10043 22.9094C2.72571 23.5444 3.48284 24.0378 4.31325 24.3504C5.10949 24.6581 6.01794 24.873 7.34673 24.9316C8.6196 24.9877 9.06478 25.0034 12.0559 25.0047V17.0792H8.93032V13.1722H12.0559V10.0466C12.0559 7.45704 14.1548 5.35819 16.7444 5.35819H19.87V9.26521H18.3072C18.2374 9.26521 18.1688 9.26468 18.1015 9.26416C17.3359 9.25824 16.7444 9.25367 16.7444 10.0466V13.1722H20.6514L19.0886 17.0792H16.7444V24.9684C17.0312 24.9587 17.3127 24.9466 17.6535 24.9316C18.9821 24.873 19.8955 24.6581 20.6868 24.3504C22.3672 23.7006 23.6958 22.372 24.3456 20.6918C24.6531 19.8955 24.8682 18.9869 24.9268 17.6583C24.9853 16.3247 25 15.8998 25 12.5049C25 9.11001 24.9951 8.68508 24.9365 7.35151Z" fill="white"/>
</svg>
