<svg width="78" height="87" viewBox="0 0 78 87" fill="none" xmlns="http://www.w3.org/2000/svg">
<path d="M35.6025 39.5381C35.4677 39.8608 35.3617 40.0968 35.2654 40.3377C33.3532 45.0867 31.4507 49.8357 29.529 54.5751C29.4375 54.7967 29.2592 55.0664 29.0569 55.1435C28.6524 55.2976 28.4597 55.0134 28.3104 54.6474C26.9714 51.3481 25.6228 48.0536 24.2742 44.764C23.624 43.1794 22.9641 41.5996 22.2465 39.8608C22.2128 40.1498 22.1839 40.2798 22.1839 40.4147C22.1839 43.7622 22.1694 47.1096 22.1887 50.4619C22.1983 52.3307 22.81 53.8238 24.8136 54.3873C24.9581 54.4258 25.0352 54.7196 25.1411 54.893C24.9822 54.9894 24.8281 55.1676 24.6643 55.1676C22.8003 55.1868 20.9316 55.1868 19.0676 55.1676C18.9086 55.1676 18.7545 54.9845 18.6004 54.8834C18.716 54.7148 18.8027 54.4355 18.9472 54.4017C20.8882 53.9827 21.4421 52.4703 21.4614 50.9917C21.5047 47.0277 21.4855 43.0638 21.4662 39.0998C21.4662 38.859 21.288 38.4929 21.0905 38.3966C20.4451 38.0835 19.7515 37.8813 19.082 37.6115C18.9087 37.5393 18.769 37.3803 18.6148 37.2599C18.7738 37.1443 18.9327 36.9324 19.0965 36.9276C20.7485 36.9035 22.4054 36.9228 24.0574 36.9035C24.4813 36.8987 24.6065 37.154 24.7366 37.4719C26.4561 41.6092 28.1804 45.7465 29.9095 49.8839C29.9962 50.091 30.0973 50.2933 30.2563 50.6256C30.42 50.2933 30.5356 50.0862 30.6271 49.8646C32.3032 45.7706 33.9842 41.6766 35.6363 37.573C35.8434 37.0576 36.1131 36.8794 36.6573 36.8939C38.0589 36.9276 39.4653 36.9035 40.8669 36.9083C41.1174 36.9083 41.4545 36.8264 41.469 37.2455C41.4834 37.6693 41.1463 37.5923 40.891 37.6163C39.6676 37.7416 39.003 38.1124 39.003 39.567C39.0126 43.82 38.95 48.0681 38.9692 52.321C38.9741 53.8382 39.3979 54.1995 40.944 54.368C41.2282 54.3969 41.5557 54.3873 41.5364 54.816C41.5172 55.288 41.1511 55.1627 40.891 55.1627C38.5261 55.1724 36.1613 55.1772 33.7964 55.1531C33.5844 55.1531 33.2377 55.0038 33.1943 54.8545C33.0739 54.4306 33.4592 54.4451 33.7386 54.3969C34.042 54.3439 34.3503 54.3247 34.6441 54.2428C35.2895 54.0646 35.6748 53.6311 35.6796 52.952C35.6989 48.5642 35.7037 44.1764 35.7085 39.7886C35.7037 39.75 35.67 39.7019 35.6025 39.5381ZM28.7776 54.3488C28.8836 54.1513 28.9895 54.0501 28.9799 53.9634C28.9317 53.477 28.951 52.9568 28.7728 52.5137C27.0581 48.2704 25.3146 44.0367 23.5565 39.8078C23.3398 39.2828 23.046 38.7723 22.704 38.3099C22.2898 37.7464 21.6829 37.5489 20.8352 37.6645C22.1405 38.3966 22.5499 39.6152 23.0412 40.7808C24.8329 45.0385 26.6246 49.2915 28.4212 53.5444C28.5175 53.7852 28.6283 54.0212 28.7776 54.3488ZM36.956 37.6693C36.6236 37.6693 36.3587 37.9294 36.2817 38.334C36.195 38.7819 36.1564 39.2491 36.1564 39.7067C36.1468 43.8633 36.1564 48.0151 36.1564 52.1717C36.1564 52.9713 36.2865 53.8141 35.3858 54.3584C35.5447 54.4114 35.5977 54.4451 35.6459 54.4451C36.5803 54.421 36.9415 54.0164 36.9463 52.8027C36.9656 47.7646 36.956 42.7314 36.956 37.6693ZM20.3343 54.4114C21.0857 54.4114 21.7889 54.4114 22.5114 54.4114C22.1839 53.9105 21.8804 53.4529 21.6011 53.0339C21.182 53.4914 20.7774 53.9297 20.3343 54.4114Z" fill="#D3A153"/>
<path d="M55.6437 47.2156C56.8382 47.2156 58.0279 47.2108 59.2224 47.2205C59.4776 47.2205 59.8003 47.1482 59.8148 47.5672C59.8292 47.9526 59.5547 47.9863 59.2754 48.0055C59.1405 48.0152 59.0056 48.0296 58.8756 48.0537C57.657 48.2656 57.3054 48.6606 57.2813 49.9081C57.2572 50.9869 57.2958 52.0658 57.2524 53.1399C57.2428 53.3759 57.0742 53.7227 56.8816 53.8142C53.7653 55.2929 50.5238 56.0105 47.0897 55.1821C43.1257 54.2236 40.4333 50.8135 40.3129 46.7292C40.2358 44.1331 40.8668 41.7634 42.514 39.7357C44.5995 37.1685 47.3546 36.2485 50.5816 36.6483C51.646 36.7784 52.7009 37.024 53.7605 37.2118C54.5552 37.3515 55.3066 37.3226 56.0146 36.8121C56.5733 36.4075 57.0357 36.6868 57.0694 37.3708C57.132 38.7916 57.2091 40.2125 57.2524 41.6334C57.2572 41.8646 57.185 42.2258 57.0309 42.3077C56.6841 42.4859 56.5299 42.1535 56.3373 41.8934C55.6148 40.9061 54.9839 39.7983 54.088 38.9987C51.0199 36.2678 46.9837 37.0336 45.2113 40.7471C43.4966 44.3354 43.487 48.0248 45.4473 51.5553C46.5888 53.6167 48.3564 54.7968 50.8369 54.6137C52.7442 54.4741 53.9628 53.2507 54.0302 51.3434C54.0543 50.6931 54.0013 50.0381 53.9628 49.3879C53.9242 48.6654 53.51 48.2705 52.8213 48.1404C52.5178 48.0826 52.1999 48.0874 51.9158 47.9815C51.7472 47.9189 51.6412 47.6973 51.5064 47.548C51.6557 47.4372 51.8002 47.2397 51.9495 47.2349C53.1825 47.206 54.4107 47.2156 55.6437 47.2156ZM47.292 54.7534C43.7663 52.9135 41.6085 50.1055 41.6133 46.0693C41.623 42.0957 43.5688 39.1384 47.0752 37.2215C44.8115 37.3949 40.9342 40.6701 40.6693 45.8863C40.4574 50.0477 43.5544 54.2573 47.292 54.7534ZM53.8713 48.0682C54.8394 50.2645 54.9502 52.3644 53.1584 54.3199C54.0639 54.0647 54.8105 53.6408 55.0946 52.7305C55.4703 51.5312 55.4173 50.2982 55.1861 49.0844C55.0465 48.3668 54.4781 48.0248 53.8713 48.0682ZM53.6497 37.968C54.3144 38.5893 55.0128 39.2444 55.8123 39.9909C55.7497 39.2877 55.7208 38.7146 55.6389 38.151C55.6244 38.0499 55.4222 37.9006 55.3018 37.9006C54.7431 37.9006 54.1795 37.9439 53.6497 37.968Z" fill="#D3A153"/>
<path d="M40.8815 79.7752C40.2842 79.9631 39.6918 80.1509 39.0946 80.3388C39.0608 80.2906 39.0271 80.2472 38.9982 80.1991C39.2439 79.992 39.4654 79.7415 39.7352 79.5777C40.9152 78.8842 42.2012 78.4989 43.5546 78.3833C44.3734 78.311 45.2067 78.3255 46.0255 78.3688C46.5649 78.3977 46.9791 78.2099 47.4222 77.9498C49.686 76.6108 50.8853 74.5831 51.338 72.0448C51.3525 71.9725 51.338 71.9003 51.338 71.7847C50.8227 71.8377 50.524 72.0159 50.4325 72.5602C50.0857 74.6746 48.9731 76.317 47.2199 77.5452C48.3663 76.2736 49.2573 74.848 49.7679 73.1911C48.1495 74.4627 47.1718 76.2881 45.8328 77.9161C45.7846 77.7379 45.7461 77.6704 45.7605 77.6415C46.6612 75.9606 47.5812 74.2893 48.925 72.9118C49.1658 72.6661 49.4403 72.4494 49.7149 72.2374C50.1339 71.9147 50.1484 71.9051 50.0135 71.1104C49.0647 72.2375 48.1832 73.2874 47.3066 74.3326C47.4945 72.406 50.6685 69.0586 52.4169 69.0297C52.5325 71.3127 52.4458 73.5475 51.3139 75.5078C52.5566 75.1562 53.8522 74.795 55.1479 74.4241C55.2009 74.4097 55.2538 74.3808 55.2972 74.3519C57.2334 73.0322 58.688 69.4246 58.2111 67.1127C58.1871 67.0068 58.1485 66.9008 58.1148 66.7852C57.4935 66.9586 57.479 67.3969 57.532 67.8834C57.7198 69.6028 57.2382 71.1538 56.3279 72.5891C56.2316 72.7384 56.1111 72.878 55.9426 72.9888C56.6169 71.5294 57.0263 70.0219 57.1419 68.2639C55.904 70.0267 55.4754 71.9774 54.6951 73.7643C54.6421 73.745 54.5892 73.7306 54.5362 73.7113C54.5458 73.5957 54.5362 73.4753 54.5651 73.3645C54.9889 71.9485 55.3887 70.5276 55.8703 69.1308C56.0486 68.6155 56.3616 68.1242 56.6988 67.6907C56.9974 67.3054 57.0937 66.9731 56.7806 66.4192C56.193 67.71 55.6439 68.9189 55.0997 70.1134C54.7529 68.3939 56.6024 64.7864 58.4327 63.8375C59.1359 66.0049 59.6705 68.1386 58.9866 70.5806C59.2756 70.3494 59.4201 70.2097 59.5838 70.1086C60.4941 69.5402 61.4141 68.9863 62.3292 68.418C62.5219 68.2976 62.7482 68.182 62.859 68.0038C64.2895 65.7015 64.5737 63.2692 63.6008 60.7164C63.5526 60.596 63.4804 60.4853 63.3985 60.3263C62.9457 60.6394 62.8735 60.9814 63.0662 61.4678C63.7597 63.2066 63.7115 64.9598 63.0854 66.7081C63.0517 66.7996 63.0132 66.8815 62.965 66.9682C62.9505 66.9971 62.9072 67.0116 62.8109 67.0742C63.1721 65.4366 63.2299 63.852 62.8205 62.118C62.0836 64.0976 62.2281 66.0916 61.9102 67.999C61.862 67.999 61.8139 67.9941 61.7657 67.9941C61.732 67.9123 61.679 67.8304 61.6742 67.7437C61.6019 65.9134 61.5586 64.088 62.0017 62.2914C62.0643 62.0314 62.1414 61.7616 62.2762 61.5353C62.5074 61.1355 62.4063 60.8128 62.0065 60.36C61.7753 61.7761 61.5634 63.0669 61.3611 64.3192C60.6675 62.9657 61.2503 58.785 62.9313 57.4653C64.2125 59.4593 65.3684 61.463 65.1902 64.0206C65.4744 63.6352 65.7248 63.2692 66.0042 62.9224C66.3028 62.5467 66.5774 62.1277 66.9434 61.8291C68.7977 60.3215 68.7255 58.3034 68.4028 56.2564C68.2149 55.0667 67.6707 53.9927 66.9193 53.039C66.7845 52.8656 66.6255 52.7163 66.4473 52.5236C66.1246 52.9908 66.1439 53.3087 66.481 53.7085C67.7815 55.2594 68.2246 57.0896 68.0608 59.0933C67.767 57.4894 67.3913 55.9192 66.4329 54.3828C66.3847 56.5117 67.1024 58.3708 67.401 60.2878C67.3239 60.3071 67.2468 60.3215 67.1698 60.3408C66.8278 59.2956 66.4473 58.2601 66.1535 57.2004C65.8501 56.0926 65.5948 54.9656 65.7585 53.7856C65.7874 53.5688 65.5466 53.3135 65.431 53.0775C65.3443 53.1016 65.2528 53.1305 65.1661 53.1546C65.3588 54.4406 65.5514 55.7266 65.7393 56.9933C64.5593 55.5532 64.0005 51.6326 65.0554 50.0335C66.1969 50.4574 68.1909 52.8223 69.1975 54.9704C69.289 54.7633 69.3613 54.5995 69.4335 54.4358C69.8429 53.5688 70.1704 52.6441 70.6954 51.8493C71.2445 51.0113 71.389 50.1828 71.206 49.2388C70.8158 47.2014 69.7851 45.5687 68.1427 44.3116C68.0994 44.2778 68.0416 44.273 67.9645 44.2489C67.6803 44.6969 67.7911 45.0148 68.1957 45.323C69.7177 46.4934 70.5413 48.0877 70.8929 49.9468C70.9122 50.0383 70.8929 50.1347 70.8929 50.3466C70.5124 49.5182 70.233 48.7812 69.8477 48.0973C69.4576 47.4085 68.9615 46.7776 68.4461 46.1611C68.7159 48.131 69.814 49.7879 70.5413 51.7241C70.339 51.6181 70.2668 51.6037 70.2427 51.5652C69.0964 49.7397 67.9211 47.9287 67.5358 45.7469C67.4828 45.4579 67.2468 45.2026 67.0927 44.9329C66.9964 44.9762 66.9049 45.0196 66.8085 45.0677C67.2661 46.2815 67.7237 47.5001 68.1812 48.7138C66.6737 47.6831 65.3395 43.4157 66.1342 41.9804C67.8537 42.7895 69.4046 43.8106 70.6328 45.27C70.97 44.0081 71.3071 42.7414 71.6395 41.4795C71.6539 41.4265 71.6539 41.3639 71.6395 41.3109C70.917 38.657 69.3854 36.7112 66.77 35.7045C66.6881 35.6708 66.587 35.6901 66.4618 35.6853C66.4184 36.1717 66.587 36.4318 67.0445 36.6052C68.8218 37.2795 70.05 38.5414 70.8158 40.2754C69.8911 39.1098 68.8411 38.0839 67.5117 37.3662C68.3257 39.0616 69.7707 40.2705 70.9362 41.6962C70.9025 41.7299 70.8688 41.7685 70.8399 41.8022C70.7773 41.7829 70.7003 41.7829 70.6521 41.7396C69.0578 40.3524 67.4058 39.0182 66.4714 37.029C66.3702 36.8171 66.0427 36.7112 65.8212 36.5522C65.7634 36.61 65.7007 36.663 65.643 36.7208C66.4232 37.7274 67.2035 38.7341 67.9837 39.7407C67.9597 39.7696 67.9356 39.7937 67.9163 39.8226C67.4732 39.4758 67.006 39.1531 66.5966 38.7726C65.4069 37.6648 64.4726 36.3933 64.145 34.7557C64.0246 34.1536 64.0969 34.0621 64.6989 34.1777C66.5051 34.5293 68.2535 35.0302 69.7755 36.2825C69.7948 36.0802 69.8188 35.9405 69.814 35.8057C69.7803 34.5967 69.708 33.3878 69.7225 32.1789C69.7273 31.6394 69.5828 31.23 69.2601 30.811C67.8585 29.0193 66.0235 28.0849 63.7742 27.9115C63.6971 27.9067 63.62 27.9067 63.543 27.9163C63.5044 27.9211 63.4707 27.9404 63.3985 27.9645C63.4129 28.422 63.6586 28.6099 64.1065 28.6436C65.9753 28.7688 67.5406 29.5491 68.8411 30.888C68.9085 30.9555 68.9615 31.0325 68.9904 31.1626C67.6948 30.2041 66.2835 29.5154 64.7278 29.1541C64.6893 29.2167 64.6556 29.2745 64.617 29.3371C66.2065 30.3582 67.7959 31.3841 69.3854 32.4052C69.3565 32.4582 69.3275 32.5064 69.3035 32.5594C68.8748 32.3715 68.4413 32.1885 68.0126 31.9958C66.4714 31.2878 64.9542 30.5509 63.7838 29.2601C63.6297 29.0915 63.2877 29.0963 63.0324 29.0193C62.9987 29.0915 62.9602 29.1589 62.9265 29.2312C63.9572 29.944 64.9879 30.6569 65.9994 31.3552C64.4244 31.4805 61.2118 29.0241 60.6483 27.1601C62.5893 26.8229 64.487 26.7892 66.4666 27.425C66.2643 26.823 66.0812 26.2883 65.903 25.7585C65.8645 25.6477 65.8212 25.5418 65.7971 25.431C65.354 22.9264 63.4563 22.0835 61.3129 21.626C60.5134 21.4574 59.6465 21.5971 58.7554 21.5971C58.8806 22.0884 59.1263 22.2184 59.5597 22.1462C61.0625 21.8957 62.4593 22.2232 63.7693 22.9698C63.9042 23.0468 64.0246 23.1383 64.1499 23.2299C64.1691 23.2443 64.1691 23.2925 64.1595 23.2491C63.1384 23.0083 62.0836 22.7578 61.0288 22.5267C60.812 22.4785 60.5809 22.5218 60.2052 22.5218C61.7175 23.4899 63.3648 23.7452 64.8675 24.3521C64.8531 24.4051 64.8386 24.4629 64.8241 24.5159C64.5014 24.4677 64.1739 24.4292 63.856 24.3617C62.2955 24.0294 60.735 23.7067 59.3864 22.7578C59.2226 22.6423 58.9288 22.7 58.6976 22.6808C58.6783 22.753 58.6639 22.8253 58.6446 22.8975C59.6657 23.3117 60.6868 23.726 61.7127 24.1402C60.3111 24.5448 57.0504 23.0276 56.2219 21.5248C57.8114 20.8505 59.4345 20.4652 61.3322 20.6001C58.7891 18.4712 57.3683 15.7884 56.2557 12.8648C58.2641 12.7444 62.5893 16.0052 63.437 18.293C62.2377 17.137 61.2359 15.7547 59.7861 14.8733C59.7332 14.9166 59.6753 14.96 59.6224 15.0033C59.7813 15.2249 59.9114 15.4802 60.1088 15.6536C60.9276 16.3808 61.862 17.0022 62.5749 17.821C63.254 18.6012 63.7212 19.5742 64.2558 20.4748C64.3666 20.6579 64.3762 20.9035 64.3618 21.1636C63.437 19.5164 62.3003 18.0618 60.6723 17.007C60.918 17.4356 61.1444 17.8739 61.4093 18.293C61.6983 18.7457 62.0065 19.1888 62.3244 19.6223C62.623 20.0365 62.9457 20.4363 63.1673 20.942C62.9891 20.7927 62.8012 20.6531 62.6327 20.4941C61.3467 19.3189 60.5231 17.8113 59.6898 16.3134C59.4827 15.9377 59.2515 15.6247 58.7313 15.8703C60.2774 18.7602 62.5797 20.9324 65.2239 22.8879C64.9349 20.6001 65.012 18.3267 65.2432 16.0437C67.2083 16.4146 70.4498 23.1143 70.0211 25.9367C69.3565 23.9668 69.0482 21.8668 67.9115 20.0269C67.5599 20.4122 67.69 20.7735 67.8441 21.154C68.398 22.5218 68.9952 23.8801 69.4576 25.2817C69.8333 26.4184 69.9055 27.6225 69.6599 28.817C69.6117 29.0433 69.5298 29.2649 69.3757 29.4865C69.3613 27.1168 68.8748 24.8867 67.6948 22.8012C67.7478 23.7211 67.7574 24.6507 67.873 25.561C67.9982 26.5484 68.2149 27.5262 68.398 28.5087C68.422 28.6388 68.451 28.7832 68.5328 28.8796C68.9519 29.4046 69.3902 29.9103 69.8429 30.4546C70.5124 28.4413 71.1771 26.4376 71.8514 24.4147C73.672 25.6092 74.7653 33.1181 73.5468 35.3481C73.5468 34.3366 73.5709 33.3011 73.542 32.2656C73.5083 31.2204 73.4216 30.18 73.3541 29.053C72.8243 29.3275 72.7954 29.6358 72.8243 30.0355C72.9495 31.6587 73.0989 33.2866 73.1133 34.9146C73.1229 36.0561 72.7569 37.1495 72.1933 38.1561C72.1018 38.3247 71.9622 38.4692 71.7743 38.5944C72.5064 36.3547 72.6943 34.0958 72.2897 31.7839C71.5528 33.5997 71.3408 35.5263 71.0181 37.4625C70.9796 37.2313 70.9218 37.0002 70.9074 36.769C70.7773 34.8183 71.2204 32.9495 71.7358 31.0903C71.8177 30.7917 71.8803 30.4931 71.9814 30.1993C72.1548 29.6984 72.0103 29.342 71.4179 29.0578C71.2927 29.4913 71.1385 29.8959 71.0663 30.3101C70.6665 32.5353 70.6184 34.7846 70.6954 37.0387C70.7002 37.188 70.7195 37.3518 70.7821 37.4866C71.206 38.4499 71.6443 39.4084 72.0103 40.2127C73.2963 38.3295 74.669 36.3162 76.0706 34.2644C77.4818 36.0658 76.3837 43.3386 74.4619 45.2652C75.0592 43.2664 75.9502 41.3446 76.0658 39.2302C76.0128 39.1965 75.9598 39.1627 75.9068 39.1242C75.7479 39.365 75.5023 39.5818 75.4445 39.8467C75.1844 40.9882 75.0254 42.1538 74.7461 43.2905C74.3752 44.8028 73.7154 46.19 72.6413 47.3411C72.4438 47.553 72.2078 47.7216 71.9236 47.8565C73.2241 45.9299 74.0814 43.8684 74.3849 41.5902C74.3222 41.5613 74.2644 41.5276 74.2018 41.4987C73.6817 42.4235 73.1326 43.3386 72.6413 44.2827C72.2271 45.0822 71.8755 45.9106 71.495 46.7294C71.6009 45.3856 72.0681 44.1526 72.6991 42.9822C73.2626 41.937 73.8984 40.9304 74.5197 39.9141C74.7942 39.4662 74.828 39.0664 74.3367 38.6281C74.1344 38.9219 73.9176 39.1868 73.7587 39.4758C72.6654 41.518 71.9429 43.6999 71.3408 45.9251C71.2782 46.1611 71.442 46.4549 71.5046 46.7246C71.6876 47.7023 71.8658 48.6753 72.0392 49.6049C73.6961 48.0732 75.3915 46.5079 77.1302 44.8992C78.0068 47.3748 75.377 54.2046 73.0266 55.7073C74.0718 53.7904 75.4204 52.0227 76.0321 49.8312C75.5697 49.8553 75.3241 50.0817 75.1699 50.4718C74.8135 51.3629 74.4667 52.2635 74.067 53.1353C73.3108 54.7874 72.3041 56.2468 70.8062 57.3208C70.5509 57.5039 70.262 57.6435 69.9248 57.7302C71.7069 56.03 73.0218 54.0553 73.9225 51.6181C72.2415 53.0438 71.0519 54.7007 69.8911 56.3816C69.8477 56.3575 69.8044 56.3287 69.761 56.3046C69.8381 56.1215 69.9104 55.9385 69.9922 55.7555C70.8303 53.8963 72.1693 52.4129 73.5757 50.9824C73.8454 50.7078 74.1055 50.4237 74.3849 50.1587C74.7798 49.7782 74.7413 49.3978 74.3367 48.8583C73.9658 49.2677 73.5709 49.6145 73.2963 50.0383C72.0489 51.9746 70.8303 53.9349 69.6165 55.8903C69.5106 56.0589 69.4721 56.2853 69.448 56.4924C69.3276 57.552 69.2264 58.6165 69.1108 59.7098C69.4046 59.4979 69.6936 59.2474 70.0163 59.0644C71.7984 58.077 73.5853 57.1041 75.3818 56.1456C75.5649 56.0445 75.8153 56.0637 76.0321 56.03C76.0369 56.2468 76.0851 56.4731 76.0321 56.6754C75.0977 60.5479 72.6702 63.3029 69.4335 65.4366C69.3275 65.504 69.2023 65.5377 69.0337 65.5329C70.6376 63.8857 72.5016 62.4841 73.7298 60.4275C73.2192 60.36 72.911 60.5575 72.6172 60.9091C71.5287 62.1999 70.4642 63.5196 69.2842 64.7238C68.3643 65.663 67.2035 66.2987 65.9127 66.6455C65.7345 66.6937 65.5515 66.713 65.3251 66.6744C67.5888 65.4799 69.4672 63.8761 70.8929 61.699C70.3005 62.041 69.6936 62.3637 69.1204 62.7297C68.5039 63.1247 67.9067 63.5485 67.3239 63.982C66.7556 64.4059 66.2113 64.8634 65.5514 65.215C65.6911 65.032 65.826 64.8442 65.9753 64.6708C67.2372 63.2066 68.7977 62.1277 70.4594 61.174C70.9266 60.9043 71.3842 60.6201 71.8658 60.3745C72.386 60.1144 72.5257 59.7194 72.3379 59.0692C72.0344 59.2137 71.7262 59.3004 71.4853 59.4834C70.3294 60.3745 69.1638 61.2559 68.056 62.2096C67.2131 62.9368 66.3799 63.7075 65.6911 64.5744C64.9494 65.504 64.381 66.5685 63.7356 67.5703C63.7886 67.6233 63.8368 67.6714 63.8897 67.7244C64.0824 67.6666 64.2751 67.6185 64.4629 67.5558C66.7074 66.7852 69.0048 66.2554 71.3553 65.9616C71.5817 65.9327 71.8225 66.029 72.0537 66.0676C71.9766 66.2747 71.9333 66.501 71.8225 66.6889C69.737 70.2194 66.5244 72.2182 62.7001 73.379C62.6086 73.4078 62.5122 73.4223 62.4159 73.4271C62.3629 73.4319 62.3051 73.4127 62.2136 73.3404C64.2943 72.2182 66.5581 71.3946 68.3739 69.7329C67.8874 69.4872 67.5262 69.598 67.1553 69.8581C66.0668 70.6143 64.9927 71.3994 63.8512 72.0737C62.2955 72.9936 60.6097 73.5716 58.765 73.5427C58.5724 73.5379 58.3797 73.4897 58.1726 73.3838C60.7494 72.8877 63.0758 71.8907 65.1565 70.3301C65.142 70.2675 65.1276 70.2097 65.1132 70.1471C64.4148 70.3109 63.7067 70.4505 63.018 70.648C62.3148 70.8455 61.626 71.0815 60.9421 71.332C60.2437 71.5824 59.5597 71.8714 58.8036 72.0303C58.9625 71.9147 59.1166 71.7991 59.2804 71.6932C61.3081 70.3542 63.6152 69.7521 65.9464 69.2368C66.192 69.1838 66.4329 69.1212 66.6785 69.0682C67.2179 68.9574 67.4491 68.6251 67.4106 67.9797C67.0831 68.0086 66.7556 67.9893 66.4618 68.0712C63.5574 68.8659 60.865 70.1375 58.4375 71.9003C57.6524 72.4734 57.0937 73.3597 56.3761 74.1689C56.7999 74.1689 57.19 74.1978 57.5705 74.164C59.8439 73.9617 62.098 74.217 64.357 74.4482C64.4726 74.4578 64.5833 74.4964 64.6941 74.5253C65.2625 74.665 65.3203 74.8287 64.9253 75.2285C63.0469 77.1406 60.7928 78.3544 58.1244 78.7204C57.0793 78.8649 56.0196 78.8794 54.9648 78.9372C54.724 78.9516 54.4832 78.8986 54.2327 78.7975C56.4001 78.4266 58.6013 78.2436 60.6868 77.3477C60.287 76.9335 59.8873 76.972 59.4393 77.1117C58.216 77.5019 56.9926 77.9209 55.7451 78.2051C54.1942 78.5615 52.6529 78.3688 51.155 77.839C51.049 77.8005 50.9431 77.7523 50.8419 77.6993C50.8034 77.6752 50.7841 77.6174 50.6878 77.473C53.0238 77.6415 55.2683 77.6271 57.4453 76.8902C55.249 76.6349 53.0623 76.7697 50.8708 77.0635C50.8612 76.9913 50.8468 76.9191 50.8371 76.8468C51.6896 76.6493 52.5373 76.3363 53.3947 76.2881C55.2731 76.1821 57.1563 76.2014 59.0348 76.2014C59.6176 76.2014 60.0607 76.1051 60.2052 75.3682C60.0366 75.3296 59.8632 75.267 59.6898 75.2622C56.5446 75.1755 53.5054 75.8161 50.5 76.6542C50.4614 76.6638 50.4181 76.6686 50.3892 76.6879C49.58 77.2851 48.7709 77.8824 48.0436 78.4218C49.9653 78.9998 51.9449 79.5826 53.9149 80.1991C54.6277 80.4255 55.3212 80.7144 56.0052 81.0179C56.5254 81.2491 56.5446 81.5043 56.0678 81.7644C52.4025 83.7584 48.5926 84.216 44.619 82.7711C44.5372 82.7422 44.4649 82.6796 44.3975 82.5543C46.6083 82.93 48.8142 83.1708 51.0924 82.8433C50.8323 82.3617 50.4711 82.2605 50.0135 82.2798C48.6504 82.3424 47.2874 82.4484 45.9243 82.405C44.1567 82.352 42.5383 81.7548 41.0741 80.7578C40.9971 80.7048 40.9248 80.6374 40.8574 80.5699C40.8333 80.5459 40.8333 80.5025 40.7659 80.3002C43.1404 81.1864 45.4908 81.697 47.9761 81.4321C46.8106 81.1094 45.6594 80.7385 44.4794 80.4736C43.5064 80.2521 42.5094 80.1605 41.5221 79.992C41.3101 79.9534 41.1079 79.8234 40.9056 79.7367C42.1867 79.7993 43.4968 79.7222 44.7443 79.9534C46.4541 80.2665 48.1206 80.8156 49.8064 81.2635C50.5048 81.4465 50.7311 81.3454 51.0924 80.6663C51.0009 80.6085 50.9142 80.5266 50.8082 80.4881C50.4711 80.358 50.1291 80.2135 49.7823 80.1172C47.3115 79.4622 44.7876 79.3032 42.2445 79.4381C41.7677 79.4959 41.3246 79.6693 40.8815 79.7752ZM68.0945 28.4028C68.056 28.2775 68.0367 28.2149 68.0126 28.1475C67.5214 26.8278 67.2179 25.4695 67.1602 24.0583C67.1264 23.2347 67.0927 22.4111 67.0494 21.5874C67.0205 21.0865 66.9241 20.6241 66.2787 20.5953C65.8886 21.7512 67.2565 27.8007 68.0945 28.4028ZM53.7703 81.7933C52.5662 80.883 51.9208 80.8975 51.3717 81.8511C51.9979 82.5591 52.7492 82.5399 53.7703 81.7933ZM70.1415 67.6907C70.1078 67.6329 70.0741 67.5703 70.0404 67.5125C69.5443 67.5944 69.0049 67.5847 68.5762 67.8015C68.3354 67.9219 68.2824 68.4132 68.1427 68.7407C68.4461 68.7889 68.8507 68.9815 69.0241 68.8563C69.4528 68.548 69.7755 68.0905 70.1415 67.6907ZM60.682 76.3218C61.3418 76.895 62.2329 76.659 62.8205 75.7487C61.5923 75.2381 61.0625 75.3826 60.682 76.3218ZM74.6546 58.024C73.3108 58.2793 72.9832 58.6454 73.1904 59.5894C74.0381 59.7435 74.433 59.3293 74.6546 58.024ZM76.2537 47.3845C75.1266 47.8757 74.8906 48.3622 75.3482 49.181C76.0369 49.181 76.3211 48.8487 76.2537 47.3845ZM72.3715 26.8374C72.3089 26.8422 72.2415 26.847 72.1789 26.8518C72.0392 27.2468 71.8418 27.6321 71.7888 28.0367C71.7647 28.2342 71.9911 28.4846 72.1452 28.6821C72.1982 28.7495 72.4486 28.7784 72.4775 28.7399C72.6172 28.528 72.8291 28.2679 72.7954 28.0608C72.728 27.6369 72.5209 27.242 72.3715 26.8374ZM66.9867 20.0076C67.4347 19.3526 67.2661 18.8613 66.3558 18.2159C65.8934 19.1021 66.139 19.7957 66.9867 20.0076ZM75.3096 38.6907C76.0321 38.3102 76.1862 37.6022 75.7431 36.8075C74.8135 37.5637 74.7172 37.9538 75.3096 38.6907ZM57.9221 14.1026C58.004 15.0081 58.3075 15.2827 59.0348 15.1141C59.0492 14.4687 58.765 14.2086 57.9221 14.1026ZM50.7889 71.4138C51.5259 71.1923 51.6029 71.0622 51.6318 70.0893C50.7841 70.4891 50.6589 70.6817 50.7889 71.4138ZM65.7778 52.6826C66.1728 52.1094 66.1198 51.8879 65.4455 51.2762C65.1372 52.0372 65.1806 52.2154 65.7778 52.6826ZM62.8349 58.7995C62.2955 59.522 62.2955 59.8206 62.7916 60.2782C63.3407 59.8254 63.1287 59.3438 62.8349 58.7995ZM58.0185 65.0127C57.532 65.5137 57.1852 65.9182 57.5176 66.5588C58.2545 66.2602 58.0715 65.6822 58.0185 65.0127ZM66.6785 43.1556C66.64 44.0948 66.7363 44.2682 67.3817 44.4898C67.6225 43.8203 67.2565 43.4639 66.6785 43.1556ZM65.9656 36.0658C66.1246 35.4396 65.7248 35.1699 64.9542 35.0447C65.1661 35.5359 65.2432 36.0754 65.9656 36.0658ZM63.0373 28.4509C62.8061 27.8055 62.5074 27.661 61.7512 27.8248C62.0595 28.2679 62.3678 28.658 63.0373 28.4509ZM57.3056 21.8716C57.9896 22.4255 58.0185 22.4351 58.5579 22.1606C58.2641 21.5971 57.821 21.6741 57.3056 21.8716Z" fill="#2F632E"/>
<path d="M9.03023 28.6145C9.03987 28.3207 9.0206 28.0172 9.05913 27.7282C9.26624 26.1003 9.48779 24.4723 9.59375 22.8299C8.42335 24.901 7.93207 27.1262 7.9995 29.4863C7.92725 29.4911 7.85018 29.4959 7.77793 29.5055C7.68642 28.9661 7.54194 28.4266 7.52268 27.8824C7.46006 26.3796 7.81647 24.9443 8.37999 23.562C8.72196 22.7239 9.13618 21.9196 9.46852 21.0815C9.58412 20.7829 9.5504 20.4217 9.47334 20.0749C8.29331 21.881 7.85982 23.9425 7.30593 26.1051C6.58827 23.7595 9.83939 16.8816 11.9346 16.0531C12.291 16.8286 12.368 19.7907 12.1128 22.695C14.7185 20.884 16.8666 18.6733 18.4175 15.8797C17.9503 15.6823 17.6951 15.8894 17.4928 16.241C17.0063 17.0694 16.568 17.9364 16.0045 18.7118C15.4024 19.5451 14.6799 20.2916 14.0153 21.0719C13.9671 21.0334 13.9189 20.9996 13.8708 20.9611C14.7377 19.6944 15.5999 18.4276 16.4669 17.1609C16.4043 17.1176 16.3465 17.0742 16.2838 17.026C14.7907 18.1146 13.6733 19.5306 12.8545 21.2116C12.8063 21.1875 12.7582 21.1682 12.7148 21.1441C12.7726 20.9033 12.8015 20.6528 12.8834 20.4168C13.418 18.8708 14.4873 17.7244 15.7107 16.6985C16.1538 16.3277 16.6354 16.0001 17.0641 15.6196C17.2519 15.4511 17.3627 15.2006 17.435 14.9309C15.884 15.7641 14.8726 17.1561 13.6637 18.418C13.8034 16.6311 18.2345 13.1584 20.8739 12.802C19.7709 15.793 18.3212 18.4517 15.8118 20.5999C17.6902 20.4843 19.2989 20.8648 20.8691 21.5246C20.1274 22.9888 17.1556 24.4049 15.3254 24.1737C16.4187 23.7306 17.4398 23.3164 18.4609 22.907C18.4416 22.8299 18.4272 22.748 18.4079 22.6709C18.143 22.7239 17.8347 22.7095 17.618 22.8443C16.0382 23.8606 14.2465 24.193 12.4451 24.5012C12.4017 24.5108 12.3439 24.4723 12.2572 24.3278C13.0231 24.0822 13.7985 23.8606 14.5547 23.5861C15.3205 23.3067 16.0671 22.9792 16.7992 22.5987C15.4795 22.4638 14.2705 22.8443 13.0231 23.2345C13.1242 23.1478 13.2109 23.0466 13.3217 22.984C14.627 22.2278 16.0285 21.9003 17.5265 22.1508C17.9359 22.2182 18.1863 22.1074 18.3357 21.6499C16.5921 21.2742 14.993 21.5583 13.4999 22.4398C13.0231 22.7191 12.6089 23.1093 12.1802 23.4657C12.055 23.5716 11.9297 23.7209 11.8864 23.8751C11.5348 25.031 11.2073 26.1918 10.8557 27.4055C12.7437 26.7938 14.6462 26.8276 16.568 27.1503C16.3416 28.7734 13.4229 31.0853 11.1639 31.4321C12.2669 30.6711 13.2976 29.9535 14.3331 29.2406C14.2994 29.1635 14.2609 29.0913 14.2272 29.0142C13.9623 29.1009 13.6107 29.1106 13.4518 29.2936C12.4885 30.3677 11.2554 31.0323 9.99353 31.6537C9.32886 31.9812 8.64491 32.2605 7.9706 32.564C7.94171 32.511 7.91281 32.4628 7.88391 32.4099C9.46853 31.3888 11.0531 30.3677 12.6378 29.3466C12.6041 29.2888 12.5655 29.231 12.5318 29.1684C10.9857 29.5007 9.60821 30.2039 8.27887 31.0998C8.38001 30.9794 8.46671 30.8445 8.57748 30.7385C9.85385 29.5055 11.3614 28.7686 13.1483 28.653C13.5818 28.6241 13.8178 28.4363 13.9045 27.8679C13.2735 27.9594 12.6907 27.9931 12.1272 28.128C10.2777 28.5856 8.80868 29.6115 7.73942 31.1913C7.64791 31.3261 7.55157 31.4995 7.55157 31.6585C7.53712 33.1709 7.54193 34.6832 7.54193 36.2197C9.141 34.9626 11.058 34.4087 13.0857 34.1149C13.3988 35.6947 11.2169 38.8784 9.22288 39.8031C10.0417 38.7531 10.8268 37.7561 11.607 36.7543C11.5541 36.6917 11.5059 36.6339 11.4529 36.5713C11.2217 36.7399 10.8798 36.8555 10.7738 37.0818C10.1139 38.4738 9.06876 39.5431 7.96578 40.5641C7.48414 41.0121 6.97841 41.4311 6.40525 41.7827C7.52267 40.2607 8.9676 39.0084 9.94053 37.1926C8.42334 38.0644 7.31557 39.1529 6.35228 40.4389C6.36673 40.3618 6.36671 40.28 6.40043 40.2125C7.21923 38.5364 8.45707 37.3034 10.2006 36.605C10.7304 36.3931 10.7304 36.3979 10.8219 35.6802C10.6245 35.7188 10.4415 35.7284 10.2873 35.791C7.81166 36.8169 6.3378 38.705 5.6635 41.2577C5.61533 41.4407 5.69724 41.6671 5.75022 41.8646C6.03439 43.0013 6.32819 44.1331 6.622 45.2843C7.83093 43.8586 9.38184 42.8086 11.111 42.0091C11.9731 43.2373 10.716 47.3891 9.06395 48.781C9.54078 47.5191 10.0031 46.3006 10.4607 45.082C10.3885 45.0386 10.321 45.0001 10.2488 44.9568C10.0802 45.1542 9.7864 45.3373 9.7575 45.5588C9.52149 47.3024 8.70751 48.8003 7.83573 50.2838C7.55637 50.7558 7.26258 51.223 6.97359 51.6902C6.91098 51.6661 6.85318 51.6372 6.79056 51.6131C6.87726 51.3675 6.95431 51.1218 7.05064 50.881C7.63825 49.4602 8.23069 48.0441 8.81349 46.6281C8.86165 46.5077 8.86647 46.3728 8.84238 46.2187C7.69125 47.365 6.97841 48.7666 6.34264 50.2549C6.40043 49.9466 6.42932 49.6287 6.5112 49.3301C6.94468 47.7262 7.7346 46.3439 9.08321 45.3324C9.47334 45.0386 9.56004 44.7208 9.32403 44.2391C9.17954 44.321 9.04468 44.3788 8.9339 44.4655C7.02176 46.0308 6.01993 48.0489 5.94768 50.5198C5.94286 50.645 5.9814 50.7895 6.0392 50.9003C6.72795 52.2296 7.42634 53.5493 8.0573 54.7486C8.57266 53.9684 9.09766 53.0147 9.7816 52.1911C10.4704 51.3627 11.318 50.6691 12.1176 49.8985C13.2494 51.6372 12.763 55.2303 11.5155 57.0991C11.7226 55.7168 11.9201 54.4163 12.1176 53.1207C11.6311 53.3133 11.5155 53.5782 11.5107 54.0551C11.4963 55.028 11.3903 56.0106 11.1735 56.9594C10.9327 58.0046 10.533 59.0112 10.1958 60.0323C10.1621 60.1286 10.0947 60.2153 9.96463 60.2876C10.1525 58.361 10.9086 56.5259 10.8219 54.4115C9.90682 55.9239 9.47333 57.4411 9.31439 59.0546C9.24214 59.0449 9.16989 59.0353 9.10246 59.0209C9.15063 58.3562 9.14101 57.6771 9.26624 57.022C9.50224 55.7794 9.95981 54.6138 10.8316 53.6649C11.1832 53.2796 11.082 52.9569 10.846 52.4994C10.6582 52.7016 10.5041 52.8365 10.3837 52.9954C8.94835 54.9124 8.4089 57.0317 8.84238 59.411C8.98206 60.1816 9.28069 60.7789 9.8394 61.3376C10.6486 62.1467 11.3469 63.0667 12.079 63.9192C11.8816 61.4821 13.0568 59.4784 14.3187 57.4844C15.937 58.6404 16.5873 62.6236 15.9178 64.4105C15.7059 63.0811 15.4988 61.7952 15.2916 60.5043C15.205 60.4995 15.1231 60.4947 15.0364 60.4899C14.9978 60.7885 14.8437 61.1305 14.9448 61.3713C15.4217 62.5128 15.5614 63.7121 15.6095 64.921C15.6432 65.7639 15.6143 66.6164 15.6047 67.4593C15.6047 67.6375 15.5613 67.8157 15.5421 67.9891C15.4891 67.9891 15.4361 67.9891 15.3783 67.9891C15.1375 66.0722 14.8919 64.16 14.651 62.2431C14.574 62.2479 14.4969 62.2575 14.415 62.2623C14.0394 63.8325 14.0971 65.4123 14.4343 66.9921C14.3669 67.0066 14.3043 67.0162 14.2368 67.0307C14.0683 66.2793 13.8226 65.5375 13.7407 64.7765C13.6203 63.6013 13.7215 62.4309 14.2368 61.3328C14.4391 60.8945 14.2127 60.6151 13.89 60.2876C13.7937 60.4658 13.707 60.5862 13.654 60.7211C12.6907 63.2738 12.9749 65.7013 14.4054 68.0084C14.4921 68.1433 14.6462 68.2492 14.7859 68.3407C15.8503 69.0199 16.9244 69.6942 17.9937 70.3685C18.037 70.3974 18.0948 70.4022 18.2249 70.4455C17.5987 68.1529 18.1141 66.0192 18.8462 63.7555C21.1244 65.3786 21.9287 67.6134 22.1792 70.1469C21.6253 68.9332 21.0714 67.7194 20.4741 66.4093C20.19 66.9488 20.243 67.2715 20.5416 67.6568C21.5771 68.9958 21.9962 70.6045 22.42 72.2084C22.5501 72.6996 22.6512 73.2006 22.7668 73.6966C22.6945 73.7207 22.6223 73.7448 22.5501 73.7689C22.2129 72.8538 21.8998 71.9242 21.5242 71.0235C21.1437 70.1132 20.7005 69.2318 20.2092 68.3696C20.2237 69.9928 20.6379 71.4955 21.3652 72.9164C21.3267 72.9501 21.2882 72.979 21.2496 73.0127C21.1726 72.9067 21.0859 72.8056 21.0136 72.6948C19.9925 71.1921 19.5398 69.5352 19.7324 67.7194C19.7806 67.2522 19.6602 66.9295 19.1544 66.7609C18.8365 67.6664 18.9714 68.5767 19.1063 69.4774C19.4049 71.4425 20.5271 72.9308 21.8998 74.2746C21.9624 74.3372 22.054 74.3902 22.1407 74.4143C23.4218 74.7803 24.703 75.1416 25.9505 75.498C24.9053 73.7255 24.7608 71.6689 24.7994 69.5786C24.8138 68.9091 24.9005 68.8513 25.4978 69.121C27.7759 70.1565 29.0908 72.0398 29.9241 74.3372C29.5002 73.7978 29.0908 73.2439 28.6477 72.7189C28.2094 72.1987 27.7326 71.7026 27.275 71.2017C27.2124 71.2354 27.145 71.2691 27.0824 71.3029C27.1883 71.5774 27.2124 71.9627 27.4099 72.1072C28.6092 72.9742 29.4376 74.1494 30.2082 75.3728C30.6851 76.129 31.1089 76.9189 31.5569 77.6943C31.5039 77.7377 31.4509 77.781 31.3979 77.8244C31.2245 77.6317 31.0415 77.4439 30.8826 77.2368C29.9048 75.9989 28.9367 74.7563 27.959 73.5233C27.8434 73.3788 27.6844 73.2632 27.5014 73.1717C27.9782 74.8141 28.8548 76.2157 29.9819 77.5161C29.8663 77.4487 29.7411 77.3909 29.6399 77.309C28.1516 76.1001 27.169 74.5781 26.8608 72.6659C26.7693 72.1024 26.5236 71.8134 25.8975 71.7749C26.1961 73.9134 27.0583 75.7003 28.6574 77.1067C28.8452 77.2705 29.0619 77.4005 29.2594 77.5546C30.0397 78.1904 30.8777 78.4023 31.9229 78.3205C33.7628 78.1712 35.5642 78.5324 37.221 79.3945C37.6112 79.5968 37.9435 79.9051 38.2518 80.2856C36.2722 79.4234 34.2252 79.2886 32.1493 79.4475C30.1119 79.6016 28.0601 79.7413 26.1576 80.6661C26.6104 81.3885 26.7934 81.4608 27.5014 81.2778C29.245 80.8202 30.9837 80.3193 32.7417 79.9388C33.8591 79.6931 35.0199 79.6498 36.1759 79.9773C35.4197 80.0929 34.6635 80.1941 33.9121 80.3289C33.1174 80.4734 32.3275 80.6275 31.5424 80.8202C30.791 81.0081 30.0541 81.2585 29.322 81.5282C31.7977 81.7064 34.1626 81.2296 36.4552 80.3289C36.4793 80.3819 36.5034 80.4349 36.5275 80.4831C36.383 80.6083 36.2433 80.748 36.0843 80.8539C34.572 81.8558 32.9103 82.4193 31.0993 82.4337C29.8133 82.4434 28.5273 82.3229 27.2413 82.3181C26.8897 82.3181 26.5333 82.5204 26.2106 82.7468C28.4502 83.1899 30.6466 82.7998 32.8429 82.5927C32.8573 82.6505 32.8669 82.7131 32.8814 82.7709C31.9855 83.0069 31.1041 83.3248 30.1938 83.4596C27.198 83.9076 24.337 83.4163 21.6446 82.0147C21.3604 81.8654 21.1388 81.6005 20.8884 81.3885C21.1485 81.2103 21.3893 80.9791 21.6783 80.8636C24.0865 79.8954 26.5429 79.067 29.1053 78.595C29.1775 78.5806 29.245 78.5613 29.4713 78.5035C29.1342 78.2964 28.8693 78.1952 28.6766 78.0074C27.1305 76.5336 25.1702 76.1001 23.1666 75.8159C21.4567 75.5751 19.7372 75.4306 18.0178 75.262C17.724 75.2331 17.4205 75.3054 17.1171 75.3294C17.2664 76.0953 17.4253 76.2108 18.1815 76.206C19.718 76.1868 21.2593 76.0904 22.7909 76.1819C24.0191 76.259 25.228 76.5721 26.4369 76.914C24.2262 76.8081 22.0299 76.6299 19.8336 76.8948C22.0106 77.6413 24.2551 77.6558 26.5333 77.5739C25.8686 78.0315 25.1124 78.1712 24.3563 78.2867C22.0973 78.6383 20.0214 77.94 17.9648 77.1645C17.5169 76.9959 17.0834 76.8755 16.6354 77.3523C18.6824 78.2482 20.845 78.4698 22.9884 78.8599C22.9065 78.8888 22.8246 78.9418 22.7475 78.9418C19.5783 78.9755 16.5198 78.5854 13.9045 76.5673C13.3602 76.1434 12.8401 75.681 12.3391 75.2042C11.9779 74.8574 12.0357 74.631 12.527 74.5588C13.5336 74.4095 14.5451 74.2505 15.5565 74.2168C17.1701 74.1638 18.7836 74.2024 20.3971 74.2072C20.5464 74.2072 20.6957 74.2072 20.9414 74.2072C20.1996 73.3788 19.6217 72.4684 18.8125 71.8856C16.3994 70.1421 13.7215 68.8754 10.8364 68.0903C10.5378 68.0084 10.2151 68.0228 9.88755 67.9891C9.82975 68.6971 10.1525 68.9717 10.716 69.1114C12.185 69.4822 13.6781 69.8001 15.1038 70.2962C16.1634 70.6671 17.1412 71.274 18.1478 71.7893C18.2682 71.8519 18.3645 71.9675 18.4464 72.112C16.3513 71.3029 14.2754 70.4744 11.8816 70.1421C14.1164 71.8616 16.4813 72.8923 19.1255 73.3161C19.1159 73.3788 19.1063 73.4414 19.1015 73.504C18.5476 73.504 17.984 73.5618 17.4398 73.4943C15.6095 73.2632 13.9719 72.5166 12.4547 71.5003C11.6552 70.9657 10.899 70.3685 10.085 69.8579C9.78642 69.6701 9.38183 69.6556 9.02541 69.5641C8.98206 69.6653 8.93871 69.7664 8.90018 69.8675C9.89237 70.4985 10.8653 71.1728 11.8912 71.746C12.9268 72.324 14.0153 72.796 15.1231 73.3354C12.8063 73.9134 6.19331 69.068 5.18667 66.0192C5.46121 65.9999 5.70685 65.9421 5.94286 65.971C8.2933 66.2648 10.5908 66.7995 12.8352 67.5653C12.999 67.6231 13.1628 67.6664 13.3313 67.705C13.3602 67.7098 13.3988 67.6761 13.5192 67.6231C13.0038 66.7272 12.6041 65.7447 11.9538 64.974C10.3644 63.086 8.53412 61.4291 6.5401 59.9697C6.06808 59.6277 5.54793 59.358 4.99885 59.0257C4.77248 59.6711 4.86879 60.0564 5.37934 60.3502C6.36672 60.9089 7.38299 61.4339 8.2933 62.1034C9.35774 62.8885 10.3162 63.8084 11.3181 64.6754C11.4577 64.7958 11.5541 64.9644 11.6167 65.1811C9.96944 63.9481 8.36554 62.6621 6.44858 61.8337C7.10362 62.8837 7.90317 63.8133 8.89536 64.5502C9.88274 65.2919 10.9135 65.9758 11.9923 66.7368C11.7563 66.7031 11.5589 66.6983 11.3807 66.6453C9.25661 66.0336 7.69124 64.6369 6.30892 62.9944C5.74057 62.3201 5.24448 61.5784 4.66169 60.9137C4.42568 60.644 4.04999 60.4947 3.73692 60.2876C3.66467 60.3695 3.59243 60.4465 3.525 60.5284C4.27637 61.4002 4.99402 62.3105 5.79355 63.1389C6.58827 63.9626 7.46486 64.7091 8.25476 65.5761C8.14398 65.5376 8.01396 65.5279 7.91763 65.4653C4.6617 63.3461 2.24381 60.591 1.28052 56.7282C1.22754 56.5115 1.28052 56.2658 1.28534 56.0298C1.52135 56.078 1.79107 56.0635 1.98854 56.1743C4.01146 57.311 6.02473 58.4718 8.04283 59.6229C8.091 59.6518 8.14881 59.6614 8.24033 59.7C8.12955 58.9101 7.9417 58.1443 7.93689 57.3833C7.93207 56.3477 7.55638 55.4759 7.02657 54.6427C6.08735 53.1688 5.14814 51.6902 4.16558 50.2452C3.83806 49.7636 3.3805 49.3686 2.94701 48.8966C2.56651 49.4168 2.55688 49.7925 2.94701 50.2019C3.87659 51.1748 4.80619 52.1526 5.6876 53.1688C6.49677 54.0984 7.07955 55.1773 7.50821 56.3381C6.21258 54.7727 4.91696 53.2074 3.62133 51.6468C3.55872 51.695 3.50092 51.7384 3.4383 51.7865C4.27637 54.0647 5.572 56.0443 7.42634 57.6626C7.39744 57.7011 7.36855 57.7445 7.33965 57.783C7.13254 57.6867 6.91097 57.6145 6.72313 57.494C5.15777 56.4729 4.1126 55.0136 3.32752 53.3519C2.89404 52.4319 2.52799 51.4783 2.14749 50.5342C1.99337 50.1441 1.75735 49.884 1.25644 49.8455C1.93075 51.9984 3.1156 53.8431 4.41605 55.7986C2.14749 54.739 -0.597897 47.7503 0.114941 44.9134C1.87777 46.5173 3.67429 47.9574 5.27336 49.7829C5.36488 49.1326 5.43231 48.5739 5.51901 48.02C5.55754 47.7744 5.572 47.5047 5.68278 47.2928C6.13553 46.4643 5.96213 45.66 5.64906 44.8508C4.99402 43.1506 4.3438 41.4456 3.65986 39.755C3.50573 39.3745 3.22638 39.0421 2.98555 38.652C2.50391 39.0325 2.45092 39.4034 2.72064 39.8465C3.28417 40.7664 3.91513 41.6527 4.3727 42.6208C4.90733 43.7623 5.28782 44.976 5.73093 46.1609C5.7791 46.2909 5.76947 46.4402 5.79355 46.6522C4.8736 44.8604 3.9922 43.1506 3.11079 41.4359C3.03372 41.4696 2.96148 41.5082 2.88441 41.5419C3.18785 43.8393 4.03074 45.9297 5.41788 47.8177C5.37453 47.8563 5.336 47.8948 5.29265 47.9333C5.06627 47.7359 4.81581 47.5528 4.61352 47.3313C3.30344 45.9104 2.67248 44.1717 2.29198 42.3173C2.1234 41.5082 2.02707 40.6846 1.83923 39.8802C1.77662 39.6105 1.53579 39.3793 1.29497 39.177C1.36721 41.3396 2.17156 43.2903 2.91812 45.3902C0.977078 43.8008 -0.188505 36.3883 1.14566 34.3027C1.88739 35.319 2.62914 36.2919 3.31789 37.2986C4.00665 38.31 4.64725 39.36 5.23967 40.2896C5.63462 39.4178 6.12109 38.4593 6.50159 37.4575C6.66535 37.024 6.67979 36.5039 6.64608 36.0318C6.48713 33.9656 6.29447 31.8993 6.09699 29.8379C6.07291 29.5874 5.92842 29.3514 5.83209 29.0865C5.29746 29.3466 5.15778 29.6645 5.28783 30.1895C5.65869 31.697 6.04882 33.2094 6.29927 34.741C6.44377 35.6224 6.32338 36.552 6.23187 37.4623C5.93324 35.5406 5.7165 33.6092 4.99885 31.7837C4.56055 34.0956 4.79173 36.3594 5.55755 38.5846C5.50938 38.6038 5.4564 38.6183 5.40824 38.6376C5.25893 38.4064 5.08554 38.1848 4.96031 37.9392C4.26674 36.5665 4.03554 35.0878 4.11261 33.5706C4.17522 32.4195 4.31008 31.2732 4.44012 30.1317C4.48829 29.7223 4.48347 29.3707 4.03554 29.1009C3.51055 31.1961 3.77064 33.2816 3.85733 35.425C2.44611 33.903 3.472 26.2689 5.39377 24.3423C6.08735 26.4182 6.75686 28.417 7.43598 30.4496C7.95616 29.8379 8.48113 29.2213 9.00613 28.6C9.21324 28.3592 9.52633 28.1473 9.6034 27.8727C10.1139 25.9847 10.6004 24.0918 11.0291 22.1845C11.1446 21.6739 11.0483 21.1152 11.0483 20.5613C10.5041 20.6432 10.2681 20.884 10.2536 21.3464C10.244 21.7317 10.1958 22.1122 10.191 22.4976C10.1814 24.612 9.94055 26.6782 9.03023 28.6145ZM25.9264 81.8124C25.2569 80.9695 24.3225 80.984 23.5519 81.8269C24.6549 82.559 25.2906 82.5638 25.9264 81.8124ZM14.4391 75.7629C15.1616 76.6973 15.9226 76.8996 16.5873 76.3264C16.2501 75.4017 15.571 75.2235 14.4391 75.7629ZM7.23849 67.5123C7.20478 67.5701 7.17587 67.6279 7.14216 67.6857C7.48894 68.0758 7.79239 68.5382 8.20661 68.8272C8.40408 68.9669 8.82312 68.7838 9.14582 68.7453C9.00615 68.4178 8.94836 67.9265 8.70272 67.8013C8.27405 67.5894 7.73459 67.599 7.23849 67.5123ZM4.07889 59.5844C4.27636 58.6548 3.72247 58.0816 2.6195 58.072C2.87477 59.3676 3.236 59.7481 4.07889 59.5844ZM1.95482 49.1856C2.33051 48.3331 1.9452 47.6395 1.01562 47.4324C0.885574 48.5787 1.11676 49.0267 1.95482 49.1856ZM4.97474 26.8324C4.28599 27.998 4.28118 28.3062 4.92659 28.8023C5.68278 28.3207 5.70685 27.7957 4.97474 26.8324ZM1.48762 36.7688C1.10712 38.1222 1.32387 38.5894 2.01744 38.652C2.54243 37.9295 2.44128 37.5442 1.48762 36.7688ZM10.2921 20.0074C11.135 19.7907 11.3469 19.2079 10.9472 18.2109C10.0609 18.7552 9.84422 19.3524 10.2921 20.0074ZM19.2748 14.1121C18.3838 14.1313 17.9792 14.5118 18.1574 15.1476C18.8558 15.2247 18.8847 15.1958 19.2748 14.1121ZM25.6326 70.0987C25.7386 71.1969 25.8253 71.3173 26.4996 71.3558C26.5959 70.6526 26.4466 70.4311 25.6326 70.0987ZM11.4577 52.7065C12.0887 52.2248 12.1465 52.0033 11.843 51.276C11.1639 51.878 11.135 51.9792 11.4577 52.7065ZM14.4536 58.6933C14.2031 59.3195 13.8852 59.8348 14.5403 60.3165C15.0605 59.7722 14.7859 59.2858 14.4536 58.6933ZM10.5763 43.2084C9.81048 43.6081 9.73343 43.7671 9.92609 44.5088C10.5908 44.1958 10.6726 44.032 10.5763 43.2084ZM19.7661 66.5683C20.0021 65.8025 19.9106 65.552 19.27 65.1474C19.1111 66.077 19.1352 66.1492 19.7661 66.5683ZM12.3054 35.03C11.3277 35.2901 11.188 35.4442 11.347 36.0607C11.9875 35.9451 12.0068 35.9259 12.3054 35.03ZM14.2176 28.4555C14.9159 28.6241 15.2531 28.287 15.5469 27.7234C14.9641 27.7812 14.4054 27.7138 14.2176 28.4555ZM18.5524 22.1749C19.0918 22.5409 19.4097 22.2182 19.7661 21.8666C19.2604 21.6691 18.8317 21.5969 18.5524 22.1749Z" fill="#2F632E"/>
<path d="M39.8073 81.774C39.9662 82.3231 40.1348 82.7903 40.236 83.2671C40.5394 84.6783 39.9952 85.7813 38.9548 86.6964C38.7188 86.9035 38.5406 86.8795 38.3046 86.6868C37.5676 86.0703 37.1149 85.2948 36.9511 84.3171C36.4647 84.8903 35.8722 85.0396 35.3521 84.7554C34.8752 84.4953 34.6633 83.8644 34.9668 83.2334C35.1546 82.8384 35.4629 82.429 35.8241 82.1979C36.6333 81.6825 37.5002 81.2683 38.3624 80.8396C38.5117 80.7674 38.7573 80.7626 38.9018 80.8348C39.7495 81.2442 40.602 81.6488 41.4064 82.1304C42.0951 82.535 42.4804 83.1708 42.3986 84.0137C42.3359 84.6061 41.8688 84.9384 41.1944 84.8855C40.6646 84.8469 40.3275 84.5146 40.3997 84.0378C40.4238 83.8595 40.5828 83.6813 40.7224 83.5561C40.7851 83.5031 40.9777 83.5465 41.0789 83.6043C41.1222 83.6284 41.0692 83.8017 41.0837 83.9029C41.1078 84.0715 41.1511 84.2352 41.1848 84.4038C41.3775 84.3075 41.7146 84.2256 41.7291 84.11C41.7676 83.7873 41.7532 83.4068 41.599 83.1323C41.2282 82.4435 40.5442 82.1208 39.8073 81.774ZM38.6273 86.0559C39.841 85.5068 39.7929 82.4628 38.6465 81.6151C37.428 82.6602 37.4135 85.1118 38.6273 86.0559ZM36.8933 83.7391C37.0764 83.1082 37.2594 82.4772 37.4617 81.7788C36.7248 82.0967 36.0745 82.4339 35.694 83.0889C35.5351 83.3586 35.4918 83.7439 35.5207 84.0618C35.5351 84.1919 35.8867 84.2882 36.0842 84.4038C36.1227 84.24 36.166 84.0763 36.1901 83.9077C36.2046 83.8066 36.1468 83.6284 36.1901 83.6043C36.2913 83.5465 36.4406 83.5224 36.5562 83.5513C36.6814 83.5754 36.7874 83.6717 36.8933 83.7391Z" fill="#2F632E"/>
<path d="M36.094 7.70153C36.2819 4.85018 37.144 2.39379 38.5938 0C39.4511 1.20893 40.0098 2.41305 40.3758 3.67978C40.7371 4.92725 40.9683 6.21325 41.2524 7.46553C41.6667 6.75269 42.0905 5.96761 42.577 5.22105C43.049 4.48895 43.4825 3.69905 44.3639 3.19814C44.9708 4.72014 44.9563 6.26623 44.9274 7.99052C46.329 7.04168 47.7643 6.72379 49.4645 6.85384C49.1418 7.24397 48.9106 7.53296 48.665 7.8075C47.615 8.98753 46.5602 10.1579 45.515 11.338C44.9419 11.9882 44.3639 12.6432 44.4506 13.6836C40.5541 13.0719 36.7346 13.0382 32.9007 13.6643C32.5009 11.4006 30.6369 10.2206 29.3895 8.60703C28.956 8.05314 28.4551 7.55222 28.0264 6.94053C29.5484 6.80567 30.9693 7.05613 32.3082 7.97608C32.4865 6.36256 32.2697 4.77312 32.9007 3.13552C34.4083 4.40225 35.0777 6.07838 36.094 7.70153ZM38.6756 5.24995C38.5311 5.51486 38.4589 5.60637 38.43 5.71234C37.9628 7.41255 37.4571 9.10313 37.0477 10.813C36.8309 11.7281 37.3126 12.2194 38.247 12.2194C38.5745 12.2194 38.902 12.2242 39.2247 12.2146C39.3548 12.2098 39.5715 12.2098 39.6004 12.1423C39.822 11.6462 40.3469 11.285 40.1639 10.6059C39.8219 9.34877 39.5619 8.06759 39.2392 6.80086C39.1236 6.32884 38.9068 5.87609 38.6756 5.24995ZM43.81 6.04949C43.7329 6.03985 43.651 6.03022 43.574 6.02059C43.4873 6.09284 43.3862 6.15063 43.3187 6.23733C42.1772 7.71117 41.3391 9.35359 40.8142 11.1357C40.5974 11.8678 41.0887 12.4217 41.8449 12.4217C42.1146 12.4217 42.3843 12.4265 42.6492 12.4072C42.7745 12.3976 42.9671 12.3639 43.0056 12.282C43.2368 11.7715 43.5066 11.2561 43.6222 10.7166C43.7715 10.0279 43.8293 9.31024 43.8533 8.60222C43.8822 7.7497 43.8293 6.89719 43.81 6.04949ZM33.758 6.34329C33.6954 6.51669 33.6183 6.62264 33.6232 6.72379C33.705 8.17836 33.7532 9.63776 33.9121 11.0827C33.9555 11.468 34.2686 11.9738 34.5961 12.1327C34.9573 12.3109 35.5931 12.3109 35.9062 12.0942C36.1952 11.8967 36.383 11.3813 36.2 10.8515C35.6894 9.36322 34.991 7.9857 34.0903 6.69971C34.0085 6.58893 33.8977 6.49742 33.758 6.34329ZM44.2531 12.0412C44.9082 10.9286 45.5487 9.84005 46.2375 8.66483C45.0478 8.91047 43.6751 11.3043 44.2531 12.0412ZM33.0741 12.0942C33.5124 10.9816 32.1638 8.66483 31.0752 8.73708C31.7447 9.85932 32.395 10.9575 33.0741 12.0942Z" fill="#D3A153"/>
<path d="M44.3686 14.5504C43.362 14.4541 42.3939 14.3481 41.4161 14.271C38.7622 14.0543 36.118 14.1265 33.4786 14.4685C33.2811 14.4926 33.0643 14.3433 32.8572 14.271C33.0306 14.1362 33.1896 13.9098 33.3822 13.8809C36.9031 13.3222 40.4239 13.3174 43.9496 13.8424C44.3349 13.9002 44.5613 14.0591 44.3686 14.5504Z" fill="#D3A153"/>
<path d="M46.2373 8.66455C45.5485 9.83977 44.9079 10.9283 44.2529 12.0409L46.2373 8.66455Z" fill="#D3A153"/>
</svg>
